<svg width="310" height="188" viewBox="0 0 310 188" fill="none" xmlns="http://www.w3.org/2000/svg">
<path d="M58.3039 186.645C58.3039 186.645 16.8155 178.436 14.7209 149.45C12.2881 116.08 45.7689 115.715 40.63 91.5561C33.4746 57.802 47.4862 37.6953 78.8985 39.0809C105.361 40.2192 127.705 60.996 141.892 43.1269C157.159 23.9179 185.748 9.68512 214.038 21.5956C242.328 33.5062 238.165 72.217 257.725 80.4457C277.286 88.6744 298.472 110.368 295.064 140.369C291.863 168.522 265.896 187.204 241.84 186.944C230.047 186.808 184.285 187.1 143.161 186.944L58.3039 186.645Z" fill="#EAF3FF"/>
<path d="M264.556 74.6042C264.556 74.6042 256.886 59.825 269.974 52.7087C284.064 45.0459 294.862 59.2786 291.538 71.0005C288.214 82.7224 268.641 82.1955 264.556 74.6042Z" fill="#EAF3FF"/>
<path d="M22.2603 85.513C22.2603 85.513 15.7554 80.6473 20.4519 74.1814C25.1485 67.7155 36.3825 71.02 34.5611 78.8129C33.761 82.3646 29.175 90.151 22.2603 85.513Z" fill="#EAF3FF"/>
<path d="M237.846 186.769C234.437 187.009 220.667 187.224 223.106 175.567C224.348 169.609 221.154 168.952 218.123 165.953C215.092 162.954 215.424 161.471 216.36 158.179C217.297 154.888 213.108 156.02 212.269 151.07C211.43 146.119 214.539 141.963 219.879 142.008C225.22 142.054 224.023 147.576 225.734 149.626C227.445 151.675 230.17 149.782 231.953 154.66C233.735 159.539 231.139 162.466 234.555 164.359C235.242 164.754 235.885 165.22 236.474 165.751" stroke="#A6BBEF" stroke-miterlimit="10"/>
<path d="M232.271 173.414C228.733 166.228 224.934 159.179 220.875 152.267C220.843 152.211 220.8 152.162 220.749 152.123C220.698 152.084 220.64 152.056 220.578 152.039C220.517 152.022 220.452 152.018 220.388 152.026C220.325 152.035 220.264 152.056 220.208 152.088C220.153 152.12 220.104 152.162 220.065 152.213C220.026 152.264 219.997 152.322 219.981 152.384C219.964 152.446 219.96 152.51 219.968 152.574C219.976 152.638 219.997 152.699 220.029 152.754C224.084 159.667 227.883 166.718 231.426 173.908C231.706 174.474 232.545 173.98 232.271 173.414Z" fill="#A6BBEF"/>
<path d="M218.481 162.512L225.285 163.221L226.268 163.325C226.918 163.39 226.918 162.408 226.268 162.349L219.457 161.64L218.481 161.536C217.831 161.471 217.863 162.453 218.481 162.512Z" fill="#A6BBEF"/>
<path d="M221.2 158.388C221.236 158.628 221.198 158.873 221.09 159.091C220.982 159.309 220.81 159.489 220.598 159.606C220.385 159.723 220.141 159.772 219.9 159.747C219.658 159.722 219.43 159.624 219.246 159.465C219.062 159.306 218.931 159.095 218.87 158.86C218.81 158.625 218.822 158.377 218.907 158.149C218.992 157.921 219.144 157.725 219.343 157.586C219.543 157.447 219.78 157.373 220.023 157.373C220.313 157.353 220.6 157.449 220.82 157.639C221.04 157.829 221.177 158.098 221.2 158.388Z" stroke="#A6BBEF" stroke-miterlimit="10"/>
<path d="M223.854 149.222C223.737 149.423 223.563 149.585 223.354 149.687C223.145 149.789 222.91 149.827 222.68 149.796C222.449 149.765 222.233 149.666 222.059 149.513C221.884 149.359 221.759 149.157 221.699 148.932C221.639 148.707 221.648 148.47 221.723 148.25C221.798 148.029 221.936 147.836 222.121 147.695C222.305 147.553 222.528 147.47 222.76 147.454C222.992 147.439 223.223 147.493 223.425 147.609C223.559 147.686 223.677 147.79 223.771 147.913C223.866 148.036 223.935 148.176 223.975 148.326C224.015 148.476 224.025 148.633 224.004 148.786C223.983 148.94 223.932 149.088 223.854 149.222Z" stroke="#A6BBEF" stroke-miterlimit="10"/>
<path d="M228.564 175.931C228.601 176.23 228.546 176.533 228.407 176.8C228.267 177.067 228.05 177.286 227.783 177.426C227.517 177.566 227.214 177.622 226.915 177.586C226.616 177.55 226.335 177.424 226.109 177.224C225.884 177.025 225.724 176.761 225.652 176.469C225.58 176.176 225.599 175.869 225.705 175.587C225.812 175.306 226.002 175.063 226.25 174.892C226.498 174.721 226.793 174.63 227.094 174.63C227.276 174.618 227.459 174.642 227.632 174.701C227.805 174.76 227.964 174.853 228.101 174.974C228.238 175.095 228.349 175.242 228.428 175.406C228.508 175.571 228.554 175.749 228.564 175.931Z" stroke="#A6BBEF" stroke-miterlimit="10"/>
<path d="M221.721 146.21C221.722 146.315 221.692 146.418 221.635 146.506C221.577 146.593 221.495 146.662 221.399 146.702C221.302 146.743 221.196 146.754 221.093 146.734C220.99 146.714 220.895 146.664 220.821 146.589C220.747 146.515 220.697 146.421 220.677 146.318C220.657 146.215 220.668 146.109 220.708 146.012C220.749 145.916 220.818 145.834 220.905 145.776C220.993 145.719 221.096 145.689 221.2 145.69C221.338 145.69 221.471 145.745 221.568 145.842C221.666 145.94 221.721 146.072 221.721 146.21Z" stroke="#A6BBEF" stroke-miterlimit="10"/>
<path d="M257.901 185.637C255.078 183.62 254.805 170.858 266.358 168.275C272.264 166.974 271.321 163.995 272.511 160.19C273.702 156.384 275.204 156.111 278.587 155.591C281.969 155.07 279.433 150.465 283.446 147.785C287.46 145.105 292.859 144.909 294.869 150.764C296.567 155.701 291.753 157.88 290.771 160.177C289.788 162.473 292.644 165.576 289.164 169.043C285.684 172.51 281.956 169.895 281.911 173.596C281.865 177.297 280.233 183.952 276.707 185.305C272.323 186.99 260.132 187.224 257.901 185.637Z" stroke="#A6BBEF" stroke-miterlimit="10"/>
<path d="M261.96 187.191C267.457 180.687 272.954 174.182 278.19 167.449C280.857 164.014 283.479 160.545 286.054 157.041C286.425 156.534 285.58 156.046 285.209 156.547C278.158 166.196 270.727 175.554 262.916 184.622C262.37 185.272 261.811 185.877 261.271 186.515C260.867 186.99 261.557 187.686 261.96 187.204V187.191Z" fill="#A6BBEF"/>
<path d="M265.766 168.418C265.505 166.285 265.167 164.19 264.978 162.245C264.191 154.335 275.1 157.874 279.439 147.72C283.778 137.565 273.149 133.877 278.138 129.629C283.127 125.382 284.532 110.765 277.208 108.267C267.717 105.015 259.183 110.967 258.018 118.812C257.127 124.855 261.18 129.083 250.629 133.513C240.078 137.943 241.717 143.459 243.883 154.016C246.049 164.574 238.92 160.69 233.378 169.576C228.98 176.621 235.153 183.809 237.931 186.489L259.293 186.853" stroke="#A6BBEF" stroke-miterlimit="10"/>
<path d="M242.419 186.541C243.287 184.537 244.154 182.538 245.021 180.543C247.159 175.626 249.308 170.712 251.468 165.803C254.234 159.515 257.016 153.227 259.813 146.939C262.498 140.902 265.219 134.881 267.977 128.875C269.929 124.621 271.88 120.353 274.033 116.197C274.196 115.871 274.365 115.546 274.534 115.234C274.833 114.681 273.988 114.187 273.695 114.74C271.652 118.552 269.864 122.493 268.042 126.409C265.33 132.264 262.676 138.157 260.035 144.051C257.203 150.382 254.384 156.722 251.578 163.071C249.306 168.227 247.042 173.392 244.787 178.566C243.727 181.005 242.53 183.432 241.587 185.923C241.574 185.959 241.559 185.994 241.541 186.027C241.294 186.6 242.133 187.094 242.387 186.521L242.419 186.541Z" fill="#A6BBEF"/>
<path d="M261.726 142.158L274.248 141.462L276.05 141.364C276.7 141.332 276.7 140.356 276.05 140.389L263.534 141.085L261.732 141.182C261.082 141.182 261.082 142.19 261.732 142.158H261.726Z" fill="#A6BBEF"/>
<path d="M247.272 174.78L257.147 173.668L258.565 173.512C259.183 173.44 259.215 172.464 258.565 172.536L248.69 173.642L247.272 173.804C246.654 173.876 246.622 174.852 247.272 174.78Z" fill="#A6BBEF"/>
<path d="M245.763 138.866L253.126 155.421L254.167 157.763C254.421 158.336 255.267 157.835 255.013 157.269L247.636 140.714L246.622 138.405C246.368 137.832 245.522 138.326 245.776 138.892L245.763 138.866Z" fill="#A6BBEF"/>
<path d="M266.585 117.075C265.889 118.103 264.666 118.493 263.866 117.947C263.066 117.4 262.975 116.125 263.677 115.091C264.38 114.057 265.596 113.673 266.403 114.219C267.209 114.766 267.287 116.047 266.585 117.075Z" stroke="#A6BBEF" stroke-miterlimit="10"/>
<path d="M266.117 123.619C266.659 123.619 267.099 123.179 267.099 122.637C267.099 122.094 266.659 121.654 266.117 121.654C265.575 121.654 265.135 122.094 265.135 122.637C265.135 123.179 265.575 123.619 266.117 123.619Z" stroke="#A6BBEF" stroke-miterlimit="10"/>
<path d="M272.329 149.951C273.385 149.951 274.241 149.095 274.241 148.038C274.241 146.982 273.385 146.126 272.329 146.126C271.273 146.126 270.417 146.982 270.417 148.038C270.417 149.095 271.273 149.951 272.329 149.951Z" stroke="#A6BBEF" stroke-miterlimit="10"/>
<path d="M126.378 186.821C126.925 184.869 126.938 182.677 127.178 180.823C127.705 176.816 133.508 180.121 137.241 175.743C140.975 171.365 135.349 168.028 138.731 166.636C142.114 165.244 144.41 158.967 140.832 155.987C136.402 152.299 130.19 154.738 128.557 158.433C127.302 161.282 129.104 163.943 122.521 164.619C115.938 165.296 116.198 168.236 116.139 173.726C116.081 179.216 112.477 176.296 108.216 179.88C105.797 181.916 106.46 184.752 107.494 186.834" stroke="#A6BBEF" stroke-miterlimit="10"/>
<path d="M113.492 187.341C120.426 179.386 127.295 171.378 134.412 163.598C135.771 162.115 137.124 160.625 138.568 159.22C139.024 158.784 138.328 158.095 137.879 158.531C134.815 161.503 132.024 164.775 129.175 167.956C125.311 172.293 121.478 176.651 117.675 181.031C116.048 182.905 114.422 184.772 112.802 186.652C112.393 187.12 113.082 187.816 113.492 187.341Z" fill="#A6BBEF"/>
<path d="M127.725 170.701L134.971 172.146L136.012 172.36C136.63 172.477 136.89 171.541 136.272 171.417L129.032 169.966L127.985 169.758C127.373 169.635 127.113 170.578 127.725 170.701Z" fill="#A6BBEF"/>
<path d="M118.878 166.636L121.076 175.847L121.382 177.148C121.525 177.759 122.468 177.499 122.325 176.888L120.127 167.677L119.814 166.376C119.671 165.764 118.735 166.024 118.878 166.636Z" fill="#A6BBEF"/>
<path d="M133.664 158.817C133.434 159.017 133.142 159.131 132.838 159.138C132.534 159.145 132.237 159.045 131.998 158.856C131.908 158.751 131.842 158.627 131.806 158.493C131.769 158.359 131.762 158.219 131.786 158.082C131.809 157.946 131.863 157.816 131.942 157.702C132.022 157.589 132.125 157.494 132.246 157.425C132.474 157.224 132.766 157.109 133.07 157.101C133.374 157.092 133.672 157.191 133.911 157.379C134.001 157.485 134.067 157.61 134.104 157.744C134.14 157.878 134.147 158.019 134.124 158.156C134.1 158.293 134.047 158.423 133.967 158.538C133.888 158.652 133.784 158.747 133.664 158.817Z" stroke="#A6BBEF" stroke-miterlimit="10"/>
<path d="M134.23 175.157C134.208 175.39 134.115 175.611 133.964 175.79C133.813 175.968 133.611 176.097 133.385 176.157C133.159 176.217 132.92 176.207 132.7 176.127C132.48 176.047 132.289 175.902 132.154 175.711C132.019 175.52 131.946 175.292 131.945 175.058C131.943 174.824 132.014 174.595 132.146 174.402C132.279 174.209 132.467 174.062 132.686 173.979C132.905 173.897 133.144 173.883 133.371 173.941C133.646 173.989 133.891 174.143 134.052 174.372C134.213 174.6 134.277 174.882 134.23 175.157Z" stroke="#A6BBEF" stroke-miterlimit="10"/>
<path d="M33.9562 186.43C31.6795 187.029 21.4017 188.733 21.5969 180.543C21.6815 176.361 20.4585 176.51 18.0062 174.871C15.5538 173.232 15.6189 172.185 15.8335 169.843C16.0482 167.501 13.7129 168.633 12.1582 165.556C10.2978 161.874 12.5355 159.123 16.1523 158.466C19.769 157.809 19.6584 161.718 21.096 162.863C22.5336 164.008 24.5176 161.523 27.2757 164.912C29.0775 167.124 26.2804 172.172 28.9344 171.697" stroke="#A6BBEF" stroke-miterlimit="10"/>
<path d="M29.3572 179.047C25.8185 174.277 22.0912 169.641 18.1752 165.14C17.7589 164.671 17.0759 165.361 17.4857 165.836C21.3366 170.259 25.0227 174.828 28.544 179.542C28.9083 180.042 29.7605 179.542 29.3832 179.047H29.3572Z" fill="#A6BBEF"/>
<path d="M23.0408 165.075L22.6505 170.929L22.5985 171.755L23.0864 171.267L17.7198 171.71C17.0693 171.762 17.0693 172.738 17.7198 172.685L23.0864 172.243C23.2142 172.238 23.3355 172.185 23.426 172.095C23.5165 172.004 23.5694 171.883 23.5742 171.755L23.9645 165.901L24.0166 165.075C24.0621 164.424 23.0864 164.424 23.0408 165.075Z" fill="#A6BBEF"/>
<path d="M17.8952 137.988C13.4133 134.332 12.34 123.027 18.7278 119.618C26.6313 115.384 34.8991 121.941 35.9399 128.686C36.7465 133.89 33.1102 137.52 42.5749 141.332C52.0395 145.144 50.5759 149.879 48.631 158.934C46.686 167.989 53.0868 164.671 58.0566 172.315C61.9986 178.371 56.4629 184.55 53.991 186.853L34.6324 186.756C34.0015 186.39 33.4011 185.975 32.837 185.513C26.5793 180.4 29.0641 172.328 29.7146 166.037C30.4172 159.233 20.6077 162.271 16.7373 153.542C12.8669 144.812 22.3836 141.657 17.8952 137.988Z" stroke="#A6BBEF" stroke-miterlimit="10"/>
<path d="M50.745 186.476C49.9774 184.765 49.1968 183.054 48.4227 181.35C46.4929 177.105 44.5544 172.859 42.6073 168.613C40.1354 163.219 37.6505 157.835 35.1527 152.462C32.7328 147.258 30.2891 142.076 27.8216 136.915C26.0653 133.253 24.3089 129.577 22.3835 125.993L21.9346 125.174C21.6289 124.627 20.7833 125.115 21.089 125.668C22.9104 128.92 24.5106 132.296 26.1303 135.653C28.5827 140.714 30.9765 145.807 33.3573 150.901C35.8942 156.326 38.4051 161.759 40.89 167.202C42.9325 171.647 44.9664 176.094 46.9916 180.543L48.9431 184.856C49.2101 185.547 49.5163 186.223 49.8603 186.879L49.8993 186.964C50.1595 187.536 50.9986 187.042 50.7384 186.476H50.745Z" fill="#A6BBEF"/>
<path d="M32.6095 147.856L21.382 147.258L19.7623 147.173C19.1118 147.173 19.1118 148.116 19.7623 148.149L30.9963 148.741L32.6095 148.812C33.26 148.845 33.26 147.869 32.6095 147.837V147.856Z" fill="#A6BBEF"/>
<path d="M45.6195 175.905L32.9934 174.546L31.172 174.351C30.5215 174.279 30.5541 175.255 31.172 175.326L43.8046 176.686L45.6195 176.881C46.27 176.946 46.27 175.97 45.6195 175.905Z" fill="#A6BBEF"/>
<path d="M46.1464 145.475L39.5309 159.708L38.6007 161.718C38.334 162.284 39.1796 162.785 39.4398 162.213L46.0553 147.98L46.992 145.97C47.2522 145.404 46.4131 144.909 46.1464 145.475Z" fill="#A6BBEF"/>
<path d="M31.9592 137.416C32.6097 138.3 33.683 138.639 34.3985 138.164C35.1141 137.689 35.1986 136.596 34.5676 135.712C33.9367 134.827 32.8438 134.495 32.1283 134.963C31.4128 135.432 31.3087 136.531 31.9592 137.416Z" stroke="#A6BBEF" stroke-miterlimit="10"/>
<path d="M27.809 131.978C27.8012 132.154 27.8464 132.329 27.9387 132.479C28.0311 132.63 28.1664 132.749 28.3272 132.822C28.488 132.895 28.667 132.918 28.8411 132.889C29.0152 132.859 29.1764 132.778 29.3041 132.656C29.4317 132.534 29.5199 132.377 29.5574 132.204C29.5948 132.032 29.5797 131.852 29.514 131.688C29.4484 131.524 29.3352 131.383 29.1889 131.284C29.0427 131.185 28.8702 131.132 28.6936 131.132C28.58 131.129 28.467 131.149 28.361 131.19C28.2551 131.231 28.1583 131.293 28.0761 131.372C27.9939 131.45 27.9281 131.544 27.8822 131.648C27.8364 131.752 27.8115 131.864 27.809 131.978Z" stroke="#A6BBEF" stroke-miterlimit="10"/>
<path d="M30.8925 129.044C30.8795 129.34 30.9555 129.633 31.1107 129.886C31.2658 130.138 31.4931 130.338 31.7631 130.46C32.0331 130.582 32.3334 130.621 32.6255 130.571C32.9175 130.521 33.1878 130.384 33.4015 130.179C33.6153 129.973 33.7626 129.709 33.8246 129.419C33.8865 129.129 33.8603 128.828 33.7492 128.553C33.6381 128.278 33.4473 128.043 33.2013 127.878C32.9553 127.713 32.6655 127.625 32.3692 127.626C31.9855 127.619 31.6147 127.764 31.338 128.03C31.0613 128.296 30.9011 128.66 30.8925 129.044Z" stroke="#A6BBEF" stroke-miterlimit="10"/>
<path d="M21.4017 153.815C21.3861 154.157 21.4734 154.497 21.6524 154.789C21.8314 155.082 22.0938 155.314 22.4059 155.456C22.718 155.598 23.0655 155.643 23.4036 155.586C23.7417 155.529 24.0549 155.372 24.303 155.135C24.551 154.898 24.7225 154.593 24.7953 154.258C24.8682 153.922 24.839 153.573 24.7116 153.255C24.5843 152.937 24.3645 152.664 24.0807 152.471C23.7968 152.279 23.4619 152.176 23.119 152.175C22.8986 152.17 22.6793 152.209 22.4737 152.288C22.2681 152.368 22.0802 152.487 21.9207 152.639C21.7612 152.792 21.6333 152.974 21.5442 153.175C21.4552 153.377 21.4067 153.594 21.4017 153.815Z" stroke="#A6BBEF" stroke-miterlimit="10"/>
<path d="M61.8817 186.788C62.2719 186.562 62.6439 186.305 62.9941 186.021C66.858 182.859 65.3228 177.87 64.9456 173.98C64.5162 169.778 70.5593 171.658 72.9661 166.259C75.373 160.86 69.4795 158.902 72.2506 156.644C75.0217 154.387 75.6852 147.414 71.7367 145.293C66.8515 142.691 61.7451 146.731 61.1012 150.894C60.6003 154.146 62.851 156.358 57.0031 158.7C54.993 159.506 53.7506 160.385 53.1001 161.412" stroke="#A6BBEF" stroke-miterlimit="10"/>
<path d="M58.896 173.258C61.0643 168.488 63.2738 163.741 65.5246 159.019C67.0987 155.701 68.6404 152.338 70.4228 149.125C70.7285 148.578 69.8894 148.084 69.5836 148.637C67.7948 151.844 66.2596 155.207 64.6854 158.531C62.4412 163.26 60.2426 168.008 58.0504 172.77C57.7902 173.336 58.6293 173.83 58.896 173.258Z" fill="#A6BBEF"/>
<path d="M63.1373 163.533L70.078 163.169L71.0733 163.11C71.7238 163.11 71.7238 162.102 71.0733 162.134L64.1325 162.505L63.1373 162.557C62.4868 162.59 62.4868 163.566 63.1373 163.533Z" fill="#A6BBEF"/>
<path d="M58.8438 180.472L63.3973 179.978L64.0478 179.906C64.1772 179.906 64.3012 179.855 64.3927 179.763C64.4842 179.672 64.5356 179.547 64.5356 179.418C64.5356 179.289 64.4842 179.165 64.3927 179.073C64.3012 178.982 64.1772 178.93 64.0478 178.93L59.4943 179.425L58.8438 179.496C58.7144 179.496 58.5903 179.548 58.4988 179.639C58.4074 179.731 58.356 179.855 58.356 179.984C58.356 180.113 58.4074 180.238 58.4988 180.329C58.5903 180.421 58.7144 180.472 58.8438 180.472Z" fill="#A6BBEF"/>
<path d="M54.0758 161.673L58.1674 170.467L58.7463 171.716C59.0065 172.282 59.8522 171.788 59.5855 171.222L55.5004 162.427L54.941 161.172C54.6743 160.606 53.8351 161.1 54.0953 161.666L54.0758 161.673Z" fill="#A6BBEF"/>
<path d="M65.8301 149.977C65.6825 150.229 65.4454 150.417 65.1658 150.502C64.8862 150.588 64.5846 150.565 64.321 150.439C64.2122 150.348 64.123 150.235 64.0586 150.109C63.9942 149.983 63.956 149.844 63.9463 149.703C63.9366 149.561 63.9556 149.419 64.0021 149.285C64.0486 149.151 64.1216 149.028 64.2169 148.923C64.3634 148.669 64.6006 148.481 64.8806 148.395C65.1606 148.309 65.4627 148.333 65.7261 148.461C65.834 148.553 65.9226 148.665 65.9864 148.791C66.0503 148.918 66.0882 149.056 66.0979 149.197C66.1076 149.338 66.0889 149.48 66.0429 149.614C65.9969 149.748 65.9246 149.871 65.8301 149.977Z" stroke="#A6BBEF" stroke-miterlimit="10"/>
<path d="M70.0713 166.428C70.0804 166.639 70.026 166.848 69.9151 167.029C69.8043 167.209 69.6421 167.352 69.4493 167.439C69.2565 167.527 69.042 167.554 68.8335 167.519C68.6249 167.483 68.4317 167.386 68.2788 167.239C68.126 167.093 68.0204 166.904 67.9756 166.698C67.9309 166.491 67.9491 166.275 68.0278 166.079C68.1065 165.882 68.2422 165.714 68.4175 165.595C68.5927 165.477 68.7994 165.413 69.011 165.413C69.2859 165.408 69.5518 165.512 69.7504 165.702C69.9491 165.892 70.0645 166.153 70.0713 166.428Z" stroke="#A6BBEF" stroke-miterlimit="10"/>
<mask id="mask0_11690_429042" style="mask-type:luminance" maskUnits="userSpaceOnUse" x="0" y="0" width="310" height="188">
<path d="M48.7744 186.613C48.7744 186.613 3.2009 177.597 0.872133 145.749C-1.80139 109.093 34.9839 108.671 29.3377 82.1175C21.4667 45.0394 36.8639 22.9227 71.3725 24.4643C100.469 25.7653 125.019 48.5325 140.585 28.9527C157.374 7.82473 188.78 -7.78708 219.854 5.29432C250.928 18.3757 246.355 60.9049 267.847 69.9402C289.339 78.9756 312.614 102.81 308.867 135.803C305.348 166.734 276.824 187.283 250.394 186.97C237.443 186.814 187.173 187.139 141.996 186.97C94.9789 186.762 48.7744 186.613 48.7744 186.613Z" fill="white"/>
</mask>
<g mask="url(#mask0_11690_429042)">
<path d="M103.312 90.6128C101.917 93.0569 99.8959 95.0855 97.4573 96.4902C95.0187 97.895 92.2501 98.6252 89.4359 98.606C86.6218 98.5867 83.8634 97.8187 81.4443 96.3807C79.0252 94.9427 77.0325 92.8867 75.6709 90.4237C74.3093 87.9608 73.6278 85.1798 73.6966 82.3664C73.7654 79.553 74.5819 76.8086 76.0623 74.4152C77.5426 72.0217 79.6334 70.0655 82.1199 68.7475C84.6065 67.4294 87.399 66.7971 90.2108 66.9154C90.497 66.9154 90.7767 66.9349 91.0499 66.9739C91.7546 67.045 92.4542 67.1601 93.1445 67.3187C93.4047 67.3772 93.6649 67.4488 93.9186 67.5203C96.6053 68.3012 99.0394 69.7751 100.976 71.7941C99.0817 72.6962 97.5191 74.1719 96.5103 76.0121C95.5014 77.8522 95.0976 79.9632 95.356 82.0458C95.6144 84.1283 96.522 86.0767 97.95 87.6144C99.378 89.1521 101.254 90.2012 103.312 90.6128Z" fill="white"/>
<path d="M98.96 61.3732C98.3095 62.8108 97.6005 64.2289 96.7939 65.7901C95.9157 67.8912 95.0115 69.8947 94.1464 71.8397C93.0991 74.1684 92.1103 76.3931 91.1866 78.6763C91.1587 78.738 91.1163 78.7921 91.0631 78.8339C91.0099 78.8758 90.9474 78.9043 90.8809 78.917C90.8124 78.9329 90.7412 78.9329 90.6727 78.917C90.624 78.8984 90.5796 78.8702 90.5419 78.8341C90.5043 78.798 90.4743 78.7547 90.4537 78.7068C90.4331 78.6589 90.4222 78.6073 90.4219 78.5552C90.4215 78.503 90.4316 78.4513 90.4516 78.4031C91.3818 76.0874 92.4031 73.8497 93.4243 71.5404C94.296 69.589 95.1937 67.5985 96.0718 65.4974C96.8589 63.9882 97.5484 62.6157 98.1729 61.2301C98.4396 61.2301 98.6933 61.2952 98.96 61.3732Z" fill="#ECF2FD"/>
<path d="M98.96 52.2663C98.3095 53.7104 97.6005 55.1285 96.7939 56.6832C95.9157 58.7908 95.0115 60.7943 94.1399 62.7328C93.0926 65.068 92.1038 67.2862 91.1801 69.5694C91.1552 69.6319 91.1146 69.687 91.0622 69.7291C91.0097 69.7713 90.9473 69.7992 90.8809 69.8101C90.8129 69.8296 90.7408 69.8296 90.6727 69.8101C90.624 69.7915 90.5796 69.7633 90.5419 69.7272C90.5043 69.6911 90.4743 69.6478 90.4537 69.5999C90.4331 69.552 90.4222 69.5004 90.4219 69.4483C90.4215 69.3961 90.4316 69.3444 90.4516 69.2962C91.3818 66.9805 92.3705 64.7428 93.4243 62.427C94.296 60.4756 95.1937 58.485 96.0718 56.3905C96.8589 54.8813 97.5484 53.5088 98.1729 52.1167C98.4787 52.1232 98.7324 52.1883 98.96 52.2663Z" fill="#ECF2FD"/>
<path d="M183.921 130.345C184.636 130.052 189.346 128.198 193.984 130.625C198.29 132.882 200.781 137.91 200.137 143.205C209.03 147.544 216.595 147.798 218.865 144.604C221.135 141.41 217.519 135.119 216.354 133.142C209.94 122.298 197.334 120.347 194.543 120.002C191.876 119.67 183.192 118.597 181.403 122.519C180.102 125.395 183.114 129.337 183.921 130.345Z" fill="white"/>
<path d="M143.102 153.834L142.244 161.38C140.683 160.944 138.991 160.391 137.209 159.702C135.496 159.042 133.818 158.295 132.181 157.464C133.943 156.696 135.908 155.929 138.068 155.233C139.837 154.667 141.522 154.198 143.102 153.834Z" fill="#1A004C"/>
<path d="M212.393 144.077C210.949 146.679 201.901 144.389 197.874 142.977C195.056 141.99 192.41 140.57 190.029 138.769C189.814 138.606 189.561 138.411 189.242 138.118C187.08 136.307 185.365 134.021 184.233 131.438L182.282 129.759C185.58 128.927 194.121 127.255 202.245 131.711C208.321 135.041 213.759 141.598 212.393 144.077Z" fill="#1A004C"/>
<path d="M114.572 103.785C107.111 112.008 110.5 140.727 115.112 140.974C115.606 140.974 116.009 140.616 116.81 139.855C121.109 135.757 120.888 126.474 120.953 126.143V126.026V125.876C121.968 120.542 122.853 115.904 122.352 111.617C121.922 107.981 120.238 102.413 117.577 102.114C116.257 101.977 115.06 103.278 114.572 103.785Z" fill="#1A004C"/>
<path d="M168.043 62.2513C167.876 65.1327 166.885 67.9054 165.187 70.2394C163.948 71.9941 162.319 73.4366 160.426 74.4527C158.534 75.4688 156.431 76.0307 154.285 76.0938C151.455 76.3085 149.081 76.4841 147.428 75.2872C144.117 72.8804 145.568 66.1803 146.882 57.9581C147.357 54.9593 147.767 53.7884 148.58 52.6566C151.019 49.2545 156.62 47.0428 161.44 48.9878C168.446 51.837 168.082 61.4642 168.043 62.2513Z" fill="#F6ABA9"/>
<path d="M156.301 61.5879C156.435 61.7824 156.488 62.0214 156.449 62.2544C156.41 62.4875 156.282 62.6963 156.093 62.8368C155.95 62.9353 155.781 62.988 155.608 62.988C155.435 62.988 155.266 62.9353 155.123 62.8368C154.92 62.6332 154.806 62.3571 154.806 62.0692C154.806 61.7814 154.92 61.5053 155.123 61.3017C155.321 61.1995 155.549 61.1722 155.765 61.2247C155.982 61.2773 156.172 61.4063 156.301 61.5879Z" fill="#1A004C"/>
<path d="M173.337 49.801C174.346 44.545 166.423 35.7893 159.716 42.1186C154.61 39.5167 148.339 42.1186 146.413 46.4119C144.768 49.5863 146.069 54.4325 146.986 57.0995C149.002 56.5856 153.283 54.1983 154.506 50.6791C156.672 56.0977 163.281 57.8345 166.273 53.8925C167.523 56.4459 168.019 59.3025 167.704 62.1278V62.9474C169.225 62.9393 170.711 62.4869 171.979 61.6456C173.247 60.8044 174.241 59.611 174.839 58.2122C175.438 56.8135 175.614 55.2703 175.348 53.7725C175.081 52.2746 174.382 50.8874 173.337 49.7814V49.801Z" fill="#1A004C"/>
<path d="M149.594 60.7487C149.707 60.9501 149.747 61.1839 149.708 61.4112C149.669 61.6384 149.553 61.8454 149.38 61.9977C149.238 62.0947 149.07 62.1467 148.898 62.1467C148.727 62.1467 148.559 62.0947 148.417 61.9977C148.014 61.705 147.923 60.9114 148.417 60.1698C148.649 60.134 148.886 60.1703 149.097 60.2739C149.308 60.3774 149.481 60.5432 149.594 60.7487Z" fill="#1A004C"/>
<path d="M172.589 81.1612C171.457 82.1825 158.317 93.9108 153.855 90.6649C152.047 89.3639 150.739 84.9991 152.456 82.28C152.912 81.5804 153.533 81.0039 154.265 80.6018C154.317 79.4829 154.362 78.3641 154.414 77.2452C155.243 76.6995 156.113 76.2189 157.016 75.8076L157.218 75.7036C158.435 75.0211 159.587 74.2285 160.659 73.3358C161.657 72.4207 162.671 71.4992 163.703 70.5712C164.569 69.7971 165.434 69.0425 166.305 68.301C166.208 68.7693 166.104 69.2312 166.006 69.6995C165.073 72.8851 165.073 76.2714 166.006 79.4569C166.351 79.6455 166.722 79.8277 167.112 79.9968C168.844 80.7404 170.705 81.136 172.589 81.1612Z" fill="#F6ABA9"/>
<path d="M159.97 56.9369C160.028 56.41 156.171 55.0244 155.195 56.1953C155.059 56.3481 154.971 56.5375 154.942 56.74C154.913 56.9424 154.945 57.1489 155.032 57.3337C155.266 57.6329 155.839 57.5223 156.333 57.4377C159.143 56.9629 159.95 57.1775 159.97 56.9369Z" fill="#1A004C"/>
<path d="M161.713 45.7613C161.63 45.7622 161.548 45.7379 161.478 45.6915C161.408 45.645 161.354 45.5787 161.323 45.5011C160.803 44.1542 159.92 42.9778 158.772 42.1027C157.623 41.2276 156.255 40.6882 154.818 40.5444C153.48 40.442 152.139 40.6971 150.932 41.2835C149.725 41.8698 148.695 42.7664 147.949 43.8814C147.92 43.9324 147.881 43.9769 147.834 44.012C147.787 44.0471 147.734 44.0721 147.677 44.0854C147.62 44.0987 147.56 44.1001 147.503 44.0893C147.445 44.0785 147.391 44.0559 147.342 44.0229C147.294 43.9899 147.253 43.9473 147.222 43.8976C147.191 43.8479 147.171 43.7924 147.162 43.7344C147.154 43.6765 147.157 43.6174 147.173 43.561C147.189 43.5045 147.216 43.452 147.253 43.4066C148.088 42.1694 149.235 41.1753 150.579 40.5252C151.923 39.8751 153.414 39.5922 154.903 39.7053C156.495 39.8598 158.012 40.4547 159.285 41.4233C160.558 42.3918 161.536 43.6957 162.11 45.1889C162.131 45.2397 162.142 45.2942 162.142 45.3493C162.142 45.4043 162.131 45.4588 162.11 45.5096C162.089 45.5605 162.058 45.6066 162.019 45.6453C161.98 45.684 161.933 45.7146 161.882 45.7353C161.828 45.7551 161.771 45.7639 161.713 45.7613Z" fill="#1A004C"/>
<path d="M146.973 56.2148C146.973 55.6814 150.876 54.4845 151.787 55.7009C151.917 55.8607 151.996 56.0556 152.015 56.2607C152.033 56.4658 151.99 56.6718 151.891 56.8523C151.637 57.132 151.078 57.0019 150.59 56.8913C147.799 56.2799 146.986 56.4425 146.973 56.2148Z" fill="#1A004C"/>
<path d="M154.004 80.3026C154.104 78.9018 154.197 77.5033 154.284 76.1069C155.977 75.9096 157.627 75.4395 159.169 74.7148C160.545 74.0602 161.82 73.2125 162.955 72.1974C162.649 72.9748 162.275 73.7237 161.836 74.4351C160.858 75.9359 159.628 77.2563 158.2 78.3381C157.065 79.2832 155.848 80.1256 154.564 80.8555C154.382 80.6733 154.193 80.5107 154.004 80.3026Z" fill="#F6ABA9"/>
<path d="M169.942 62.4075C170.266 62.5172 170.555 62.7101 170.781 62.9669C171.711 64.0792 170.885 66.0762 170.781 66.3234C169.721 68.8018 166.69 69.5369 166.026 69.68C165.809 68.9548 165.714 68.1985 165.746 67.4423C165.862 65.7703 166.551 64.1895 167.698 62.9669C168.001 62.7029 168.363 62.5146 168.753 62.4173C169.143 62.3201 169.55 62.3167 169.942 62.4075Z" fill="#F6ABA9"/>
<path d="M214.956 130.904C212.345 127.942 209.217 125.48 205.725 123.638C203.032 122.22 196.618 118.857 188.676 120.282C186.216 120.726 183.846 121.574 181.663 122.793C182.392 125.299 183.138 127.814 183.901 130.338C185.618 136.043 186.412 138.19 187.186 140.824C187.284 141.143 187.381 141.475 187.472 141.813C187.98 143.602 188.559 145.911 189.092 148.682C189.456 150.562 189.795 152.65 190.074 154.947C186.8 155.135 183.516 154.947 180.284 154.387C175.835 153.593 172.856 152.299 168.179 151.785C167.788 151.74 167.379 151.701 166.962 151.668C166.373 151.625 165.755 151.592 165.108 151.57C164.146 151.57 163.469 151.57 162.116 151.57C157.904 151.71 153.704 152.092 149.536 152.715C147.374 152.981 145.227 153.354 143.102 153.834C139.649 154.63 136.28 155.752 133.039 157.184C132.463 156.978 131.971 156.587 131.641 156.072C130.457 154.055 132.837 150.653 133.319 149.918C135.27 146.952 137.001 140.005 136.675 123.079L123.509 135.939C125.416 130.338 126.092 124.392 125.491 118.507C124.891 112.621 123.028 106.934 120.029 101.834C125.717 96.8248 131.841 92.3338 138.328 88.4141C140.309 87.2086 142.261 86.0984 144.182 85.0836L145.145 84.5762C146.732 83.7436 148.287 82.976 149.796 82.2605L151.845 91.2308C151.845 91.2308 155.097 93.7482 164.003 87.6271L164.321 87.4059L164.484 87.2953C164.666 87.1652 168.198 84.5047 173.025 80.8619C174.473 81.2696 175.872 81.7358 177.221 82.2605C198.375 90.4502 208.802 112.32 213.564 125.596C214.232 125.773 214.822 126.166 215.242 126.715C215.63 127.358 215.811 128.105 215.76 128.855C215.709 129.604 215.428 130.32 214.956 130.904Z" fill="#7F90FB"/>
<path d="M124.368 135.939C123.212 137.054 121.897 137.99 120.465 138.717C119.316 139.262 118.097 139.645 116.842 139.855C117.86 137.326 118.748 134.747 119.503 132.127C120.153 129.929 120.634 127.84 121.038 125.876C121.038 125.876 123.919 111.526 119.639 104.065C118.624 102.302 117.61 102.114 117.401 102.114C115.71 101.892 114.253 104.006 114.025 104.345C114.35 103.357 114.801 102.415 115.365 101.541C115.785 100.829 116.34 100.206 116.998 99.7067C117.614 99.2541 118.316 98.931 119.06 98.757C120.446 98.716 121.81 99.107 122.963 99.8758C123.493 100.272 123.962 100.743 124.355 101.274C127.256 105.229 129.299 131.112 124.368 135.939Z" fill="white"/>
<path d="M172.999 80.8619C170.983 84.9551 167.7 88.2883 163.638 90.3656C161.55 91.3869 156.106 94.0474 152.177 91.4845C151.929 91.3284 149.028 89.3574 148.82 85.8967C148.761 84.6306 149.051 83.3725 149.659 82.2605L154.265 80.5822C152.417 83.4769 152.476 86.5733 153.92 87.8352C155.871 89.533 159.677 87.4189 160.425 87.0156C164.328 84.869 165.629 80.8489 166.039 79.4634L172.999 80.8619Z" fill="white"/>
<path d="M162.116 151.596C162.767 155.428 163.215 158.674 163.515 161.1C164.527 169.262 165.035 177.478 165.037 185.702C165.037 189.084 164.939 191.023 164.809 194.718C163.879 221.056 164.952 226.358 163.508 239.66C162.781 246.34 161.651 252.969 160.126 259.513C159.839 259.351 159.436 259.129 158.961 258.863C154.976 256.81 150.591 255.653 146.113 255.472C141.634 255.292 137.17 256.091 133.033 257.815C133.124 256.237 133.217 254.652 133.312 253.06C132.434 252.885 132.011 252.124 132.194 251.668C132.303 251.474 132.468 251.317 132.667 251.218C132.867 251.118 133.091 251.08 133.312 251.109C134.691 239.4 135.851 227.474 136.792 215.332C136.949 213.38 137.092 211.429 137.222 209.477C136.865 209.382 136.553 209.163 136.342 208.86C136.131 208.557 136.033 208.189 136.066 207.821C136.1 207.453 136.262 207.109 136.525 206.849C136.787 206.589 137.133 206.43 137.502 206.4C139.889 184.18 140.839 174.65 141.222 170.357C141.307 169.4 141.606 166.024 142.127 161.484C142.51 158.166 142.868 155.493 143.096 153.841C144.039 153.567 144.807 153.392 145.333 153.281C146.322 153.073 146.804 153.028 148.41 152.722L149.022 152.598C150.069 152.39 153.491 152.065 162.116 151.596Z" fill="#4C4139"/>
<path d="M103.338 122.851C103.267 122.852 103.198 122.835 103.136 122.8C103.075 122.766 103.023 122.716 102.987 122.656L102.811 122.383C102.751 122.29 102.73 122.176 102.753 122.068C102.776 121.959 102.841 121.864 102.935 121.804C103.028 121.743 103.141 121.723 103.25 121.746C103.358 121.769 103.453 121.834 103.514 121.927L103.689 122.207C103.732 122.27 103.757 122.344 103.761 122.42C103.765 122.496 103.748 122.572 103.711 122.639C103.675 122.706 103.621 122.762 103.555 122.801C103.489 122.839 103.414 122.859 103.338 122.858V122.851Z" fill="white"/>
<path d="M191.011 256.742C190.972 257.022 190.94 257.301 190.914 257.555C190.914 257.601 190.914 257.614 190.914 257.62C190.842 258.219 192.371 259.364 192.319 260.073C192.319 260.365 192 260.769 190.647 261.191C190.458 262.031 190.27 262.87 190.088 263.709C186.803 262.557 181.735 260.821 175.686 258.902C173.304 258.15 170.862 257.601 168.387 257.262C167.047 257.126 165.577 257.054 165.577 257.054C164.536 257.009 163.626 256.996 162.975 256.996C162.943 255.734 162.904 254.472 162.878 253.203C162.878 252.924 162.878 252.644 162.878 252.364C162.878 251.909 162.878 251.454 162.845 250.998C162.884 250.211 162.904 249.58 162.904 248.917C162.904 247.902 162.851 246.809 162.721 244.975C162.591 243.14 162.429 218.35 162.188 151.596C170.179 151.856 177.97 154.166 184.812 158.303L188.188 181.233C188.532 181.287 188.86 181.415 189.15 181.609C189.439 181.802 189.684 182.055 189.866 182.352C190.104 182.881 190.15 183.477 189.997 184.037C189.844 184.597 189.501 185.087 189.027 185.422C189.912 192.148 190.471 197.729 190.829 201.639C190.758 201.639 193.802 233.019 191.011 256.742Z" fill="#4C4139"/>
<path d="M172.869 118.044C174.898 118.428 176.72 118.747 178.248 119L179.725 119.247L180.974 119.443C180.616 118.304 180.323 117.491 180.135 116.925C180.031 116.626 179.933 116.359 179.914 116.314C179.673 115.663 179.458 115.104 179.296 114.694L177.604 114.323C174.703 113.673 172.4 113.152 171.288 112.892L170.638 112.736C168.576 112.242 160.932 110.746 143.109 107.422L141.639 111.507C146.075 112.261 149.737 112.99 152.463 113.575C159.82 115.143 164.146 116.405 172.869 118.044Z" fill="#B6C8F0"/>
<path d="M181.664 122.793C180.955 122.793 179.933 122.793 178.697 122.728C172.192 122.474 167.203 121.427 159.449 119.996C153.322 118.883 147.565 117.595 142.198 116.216C142.445 118.298 142.699 120.379 142.946 122.461C154.733 123.762 166.726 125.397 178.925 127.366L183.218 128.081L181.664 122.793Z" fill="#B6C8F0"/>
<path d="M162.149 177.174C161.617 177.19 161.087 177.113 160.581 176.946C160.129 176.78 159.718 176.521 159.374 176.184C159.03 175.848 158.76 175.442 158.584 174.995C158.162 173.72 158.013 172.37 158.148 171.033L158.532 157.848C158.536 157.739 158.581 157.636 158.658 157.559C158.736 157.483 158.84 157.439 158.949 157.438C159.06 157.441 159.165 157.488 159.241 157.569C159.318 157.649 159.36 157.756 159.358 157.867L158.975 171.059C158.852 172.275 158.978 173.504 159.345 174.669C159.479 175.007 159.682 175.312 159.941 175.567C160.199 175.821 160.508 176.018 160.848 176.146C161.482 176.323 162.145 176.376 162.799 176.302C162.903 176.31 162.999 176.356 163.071 176.431C163.143 176.505 163.184 176.604 163.188 176.707C163.192 176.811 163.158 176.912 163.093 176.992C163.027 177.072 162.934 177.125 162.832 177.141C162.637 177.167 162.396 177.174 162.149 177.174Z" fill="#1A004C"/>
<path d="M161.46 167.787H161.408C161.353 167.785 161.299 167.771 161.25 167.748C161.2 167.725 161.156 167.692 161.119 167.652C161.082 167.611 161.053 167.564 161.035 167.512C161.016 167.461 161.008 167.406 161.011 167.351L161.466 157.854C161.471 157.743 161.52 157.639 161.601 157.563C161.683 157.488 161.791 157.447 161.902 157.451C162.013 157.458 162.118 157.508 162.193 157.59C162.269 157.673 162.309 157.781 162.305 157.893L161.843 167.39C161.84 167.492 161.799 167.59 161.728 167.663C161.657 167.737 161.561 167.781 161.46 167.787Z" fill="#1A004C"/>
<path d="M149.262 152.546C149.458 155.688 149.542 159.123 148.313 162.238C147.669 163.803 146.722 165.223 145.524 166.418C144.327 167.613 142.905 168.558 141.339 169.199L141.255 169.231L141.352 168.288L141.431 168.249C144.196 166.997 146.379 164.735 147.532 161.926C148.677 159.025 148.618 155.747 148.43 152.735L149.262 152.546Z" fill="#1A004C"/>
<path d="M186.549 168.165C184.469 167.417 182.648 166.09 181.299 164.34C180.335 163.038 179.646 161.553 179.274 159.976C178.903 158.399 178.857 156.763 179.14 155.168C179.159 155.058 179.134 154.946 179.07 154.854C179.007 154.763 178.91 154.7 178.801 154.68H178.73C178.631 154.678 178.534 154.712 178.458 154.775C178.382 154.839 178.33 154.927 178.313 155.025C178.012 156.735 178.062 158.49 178.46 160.18C178.858 161.871 179.596 163.464 180.629 164.86C182.18 166.859 184.301 168.34 186.711 169.108L186.549 168.165Z" fill="#1A004C"/>
<path d="M118.221 108.82C117.089 109.945 115.951 111.116 114.799 112.32C113.921 113.243 113.063 114.154 112.23 115.065C109.003 109.961 105.775 104.711 102.544 99.3164C99.5475 94.3206 96.6572 89.3812 93.873 84.4982L93.6063 84.7779C93.4494 82.2006 92.533 79.7275 90.9725 77.6704C89.412 75.6133 87.2773 74.0643 84.8377 73.2187C75.4706 63.6759 72.9337 61.9716 72.4784 62.3554C72.3157 62.492 72.3873 62.9149 72.5239 63.715C72.7197 64.843 73.1305 65.9228 73.7338 66.8959C74.6636 68.4648 75.7349 69.9454 76.9342 71.3192C76.5389 71.5036 76.2146 71.8119 76.0105 72.1974C75.5357 73.1406 75.952 74.5326 77.1294 75.5474C76.8253 75.4751 76.5071 75.4892 76.2105 75.588C75.914 75.6869 75.651 75.8666 75.4511 76.1068C75.3475 76.3254 75.2938 76.5642 75.2938 76.8061C75.2938 77.048 75.3475 77.2868 75.4511 77.5054C76.1016 79.4113 78.7036 80.1074 79.3541 80.3025C79.1027 80.9338 79.1084 81.6384 79.3697 82.2656C79.631 82.8929 80.1274 83.393 80.7526 83.659C80.5074 85.203 80.8038 86.7842 81.5918 88.1344C83.4001 91.1462 86.9518 91.3869 87.2641 91.3869L87.16 91.491C88.2463 97.0657 89.4172 101.567 90.2758 104.618C97.1125 128.894 103.936 131.36 105.64 131.939C105.843 132.005 106.049 132.059 106.258 132.101L106.701 132.16C109.418 132.454 112.163 131.964 114.611 130.748C116.901 129.575 118.825 127.795 120.172 125.603C121.116 119.939 120.439 114.123 118.221 108.827V108.82Z" fill="#F6ABA9"/>
<path d="M184.741 158.303C188.539 157.158 190.411 156.135 190.354 155.233C190.281 154.123 187.297 153.19 181.403 152.436C181.469 153.229 181.254 153.945 180.844 154.114C180.434 154.283 179.361 153.737 178.893 152.436L162.403 151.317L161.563 151.597C166.5 152.282 171.365 153.406 176.102 154.953C179.04 155.913 181.924 157.031 184.741 158.303Z" fill="#1A004C"/>
<path d="M114.227 119.065C114.14 119.088 114.048 119.082 113.965 119.048C113.881 119.014 113.811 118.954 113.765 118.877L109.862 112.333C109.83 112.284 109.808 112.229 109.799 112.172C109.79 112.114 109.792 112.055 109.807 111.999C109.822 111.942 109.848 111.89 109.884 111.844C109.921 111.799 109.966 111.761 110.018 111.734C110.114 111.679 110.229 111.662 110.336 111.689C110.444 111.716 110.538 111.783 110.597 111.877L114.5 118.421C114.528 118.468 114.547 118.52 114.555 118.575C114.563 118.629 114.561 118.684 114.547 118.737C114.534 118.791 114.51 118.841 114.478 118.885C114.445 118.929 114.404 118.966 114.357 118.994C114.32 119.028 114.276 119.053 114.227 119.065Z" fill="#1A004C"/>
<path d="M76.4205 87.8547C76.3426 87.8513 76.2667 87.829 76.1993 87.7897C76.106 87.7296 76.04 87.6352 76.0157 87.5269C75.9913 87.4185 76.0106 87.305 76.0692 87.2107L76.1668 87.0546C76.227 86.9615 76.3209 86.8953 76.4288 86.8698C76.5367 86.8443 76.6503 86.8616 76.7457 86.918C76.8391 86.9781 76.9051 87.0725 76.9294 87.1808C76.9537 87.2892 76.9345 87.4027 76.8758 87.497L76.7783 87.6531C76.7411 87.7147 76.6887 87.7657 76.626 87.8011C76.5633 87.8364 76.4925 87.8549 76.4205 87.8547Z" fill="#ECF2FD"/>
<path d="M109.153 79.9773C109.153 78.5722 106.903 78.5267 106.916 79.9773C106.929 81.4279 109.244 81.4669 109.153 79.9773Z" fill="#4C4139"/>
<path d="M137.092 214.512C137.037 214.509 136.984 214.495 136.934 214.471C136.885 214.447 136.841 214.413 136.805 214.372C136.769 214.331 136.741 214.283 136.723 214.231C136.705 214.179 136.698 214.124 136.702 214.07L136.962 209.646C136.668 209.54 136.41 209.354 136.216 209.109C136.022 208.865 135.899 208.571 135.862 208.261C135.847 208.037 135.877 207.811 135.951 207.599C136.024 207.387 136.14 207.191 136.292 207.025C136.555 206.738 136.9 206.538 137.28 206.452C137.619 201.743 137.983 196.968 138.38 192.252C139.323 180.83 140.455 169.257 141.736 157.854C141.742 157.799 141.759 157.746 141.785 157.698C141.811 157.65 141.847 157.607 141.89 157.572C141.933 157.538 141.982 157.512 142.035 157.497C142.088 157.482 142.143 157.477 142.198 157.483C142.308 157.497 142.409 157.552 142.478 157.639C142.547 157.725 142.58 157.835 142.569 157.945C141.268 169.342 140.162 180.908 139.212 192.324C138.809 197.15 138.438 202.042 138.094 206.856C138.086 206.96 138.039 207.058 137.964 207.13C137.888 207.202 137.788 207.243 137.684 207.246C137.54 207.247 137.397 207.277 137.265 207.336C137.133 207.394 137.014 207.478 136.916 207.584C136.841 207.664 136.783 207.758 136.745 207.861C136.707 207.964 136.69 208.073 136.695 208.183C136.73 208.374 136.824 208.549 136.964 208.683C137.105 208.817 137.283 208.904 137.476 208.931C137.575 208.95 137.665 209.004 137.727 209.085C137.79 209.165 137.82 209.265 137.814 209.367L137.534 214.122C137.531 214.176 137.517 214.23 137.493 214.279C137.469 214.329 137.435 214.373 137.394 214.409C137.353 214.445 137.305 214.473 137.253 214.491C137.201 214.508 137.147 214.516 137.092 214.512Z" fill="#1A004C"/>
<path d="M189.795 194.093C189.688 194.092 189.586 194.05 189.509 193.976C189.431 193.903 189.385 193.803 189.378 193.696C189.347 192.304 189.205 190.916 188.955 189.546C188.706 188.193 188.565 186.823 188.533 185.448C188.572 184.888 188.725 184.341 188.981 183.841C189.298 183.266 189.44 182.61 189.391 181.955C189.274 181.766 189.092 181.695 188.741 181.571C188.556 181.51 188.376 181.436 188.201 181.35C187.414 180.96 187.407 179.938 187.407 179.314C187.121 175.411 186.438 171.404 185.775 167.54C185.163 163.956 184.532 160.248 184.194 156.553C184.188 156.498 184.194 156.442 184.211 156.389C184.227 156.336 184.254 156.287 184.29 156.245C184.326 156.202 184.37 156.167 184.419 156.142C184.468 156.117 184.522 156.102 184.578 156.098C184.687 156.09 184.796 156.125 184.881 156.196C184.965 156.266 185.02 156.366 185.033 156.475C185.365 160.137 185.996 163.826 186.601 167.397C187.251 171.3 187.954 175.313 188.246 179.268V179.301C188.246 179.724 188.246 180.439 188.578 180.602C188.721 180.671 188.869 180.73 189.02 180.778C189.259 180.832 189.484 180.936 189.68 181.083C189.876 181.23 190.039 181.416 190.159 181.63C190.179 181.661 190.192 181.697 190.198 181.734C190.307 182.572 190.147 183.424 189.743 184.167C189.536 184.573 189.408 185.014 189.365 185.468C189.398 186.799 189.535 188.126 189.775 189.436C190.031 190.849 190.177 192.28 190.211 193.716C190.211 193.828 190.166 193.936 190.087 194.015C190.008 194.094 189.9 194.139 189.788 194.139L189.795 194.093Z" fill="#1A004C"/>
<path d="M125.351 104.065C125.255 104.066 125.163 104.034 125.088 103.975C125.014 103.916 124.962 103.833 124.941 103.74C124.738 102.827 124.325 101.974 123.736 101.248C123.147 100.522 122.397 99.9433 121.545 99.5571C121.444 99.5114 121.366 99.4275 121.327 99.3238C121.288 99.2201 121.291 99.1051 121.337 99.0042C121.383 98.9033 121.467 98.8246 121.57 98.7856C121.674 98.7466 121.789 98.7503 121.89 98.796C122.804 99.2103 123.616 99.8185 124.271 100.578C125 101.437 125.511 102.459 125.76 103.558C125.773 103.611 125.774 103.667 125.765 103.722C125.756 103.776 125.736 103.828 125.706 103.875C125.676 103.922 125.638 103.962 125.592 103.993C125.547 104.025 125.496 104.047 125.442 104.059L125.351 104.065Z" fill="#1A004C"/>
<path d="M122.892 99.8433C122.788 99.8456 122.688 99.8084 122.612 99.7392C122.529 99.6654 122.478 99.562 122.471 99.4512C122.464 99.3405 122.5 99.2313 122.573 99.1473C124.087 97.4088 125.908 95.9644 127.946 94.8865C128.044 94.8348 128.159 94.8242 128.265 94.8571C128.371 94.8901 128.46 94.9638 128.512 95.0622C128.564 95.1605 128.574 95.2754 128.541 95.3815C128.508 95.4876 128.435 95.5763 128.336 95.6281C126.388 96.6562 124.648 98.0369 123.204 99.7002C123.164 99.7442 123.116 99.7797 123.063 99.8043C123.009 99.8289 122.951 99.8422 122.892 99.8433Z" fill="#1A004C"/>
<path d="M148.345 61.4772L148.176 61.5488C148.234 61.5226 148.295 61.5051 148.358 61.4967H148.176H148.397H148.209C148.265 61.5019 148.32 61.5174 148.371 61.5423L148.202 61.4707C148.251 61.4903 148.297 61.5166 148.339 61.5488L148.196 61.4382C148.237 61.47 148.274 61.5072 148.306 61.5488L148.196 61.4057C148.22 61.4389 148.241 61.4736 148.261 61.5098C148.302 61.5907 148.365 61.6583 148.443 61.7049C148.511 61.7682 148.594 61.813 148.684 61.835C148.773 61.8576 148.867 61.8576 148.957 61.835C149.05 61.8308 149.139 61.8016 149.217 61.7504C149.375 61.6582 149.491 61.5093 149.542 61.3341V61.1455C149.544 61.0215 149.51 60.8996 149.445 60.7942C149.384 60.6817 149.307 60.5787 149.217 60.4885L149.165 60.4429L148.976 60.2933C148.873 60.2357 148.764 60.1899 148.651 60.1567C148.438 60.1016 148.214 60.1016 148.001 60.1567C147.886 60.182 147.774 60.2214 147.669 60.2738C147.588 60.3149 147.52 60.3781 147.474 60.456C147.416 60.5272 147.374 60.6097 147.35 60.6983C147.327 60.7869 147.322 60.8794 147.337 60.9698C147.339 61.0621 147.366 61.152 147.415 61.23C147.51 61.3876 147.661 61.5036 147.838 61.5553H148.02C148.143 61.5589 148.265 61.5273 148.371 61.4642L148.345 61.4772Z" fill="#1A004C"/>
<path d="M156.041 62.2058C156.073 62.1682 156.11 62.1354 156.151 62.1082L156.008 62.2123C156.071 62.1657 156.139 62.1264 156.21 62.0952L156.041 62.1668C156.108 62.1404 156.178 62.1208 156.249 62.1082H156.06C156.134 62.1017 156.208 62.1017 156.282 62.1082H156.099C156.18 62.1208 156.258 62.1426 156.334 62.1733L156.164 62.1017C156.242 62.1348 156.314 62.1786 156.379 62.2318L156.236 62.1213C156.273 62.1442 156.306 62.1727 156.334 62.2058C156.398 62.2719 156.475 62.3244 156.56 62.3603C156.645 62.3962 156.736 62.4147 156.828 62.4147C156.92 62.4147 157.011 62.3962 157.096 62.3603C157.181 62.3244 157.258 62.2719 157.322 62.2058C157.388 62.1413 157.44 62.0643 157.476 61.9795C157.512 61.8946 157.53 61.8035 157.53 61.7114C157.522 61.5271 157.448 61.3518 157.322 61.2171C157.227 61.1201 157.12 61.0349 157.004 60.9634C156.776 60.8276 156.52 60.7474 156.256 60.7292C156.107 60.725 155.958 60.7403 155.813 60.7747C155.681 60.8053 155.553 60.8557 155.436 60.9243C155.329 60.9799 155.231 61.0499 155.143 61.1325C155.11 61.1572 155.079 61.1856 155.052 61.2171C154.986 61.2813 154.933 61.3582 154.898 61.4431C154.862 61.528 154.843 61.6193 154.843 61.7114C154.843 61.8036 154.862 61.8949 154.898 61.9798C154.933 62.0647 154.986 62.1416 155.052 62.2058C155.116 62.2725 155.192 62.3249 155.278 62.3597C155.363 62.3945 155.455 62.4107 155.546 62.4075C155.731 62.4079 155.909 62.3355 156.041 62.2058Z" fill="#1A004C"/>
<path d="M175.672 58.7777C175.604 58.7759 175.537 58.7581 175.477 58.7257C175.38 58.6744 175.307 58.5869 175.274 58.4821C175.241 58.3773 175.251 58.2638 175.302 58.1662C176.433 55.9871 176.368 53.5347 175.067 51.889C174.399 51.0646 173.489 50.4707 172.465 50.1912C172.412 50.1763 172.362 50.1509 172.319 50.1165C172.276 50.0821 172.24 50.0395 172.213 49.991C172.187 49.9426 172.17 49.8893 172.164 49.8343C172.158 49.7794 172.163 49.7238 172.179 49.6708C172.193 49.6178 172.218 49.5682 172.252 49.525C172.286 49.4817 172.328 49.4457 172.376 49.419C172.424 49.3923 172.476 49.3755 172.531 49.3696C172.585 49.3637 172.641 49.3688 172.693 49.3846C173.886 49.7194 174.944 50.4201 175.718 51.3881C177.194 53.2745 177.318 56.0847 176.037 58.5435C176.003 58.6122 175.952 58.6704 175.887 58.7117C175.823 58.753 175.749 58.7758 175.672 58.7777Z" fill="#1A004C"/>
<path d="M172.928 50.4254H172.863C172.76 50.4126 172.666 50.3629 172.598 50.2857C172.53 50.2084 172.492 50.1089 172.492 50.0058C172.492 49.9027 172.53 49.8032 172.598 49.7259C172.666 49.6487 172.76 49.599 172.863 49.5862C173.029 49.5881 173.194 49.5555 173.348 49.4906C173.501 49.4256 173.639 49.3298 173.754 49.2089C173.875 49.0955 173.973 48.9586 174.04 48.8066C174.107 48.6545 174.142 48.4905 174.144 48.3243C174.142 48.2694 174.152 48.2147 174.172 48.1635C174.191 48.1122 174.221 48.0655 174.259 48.0261C174.298 47.9866 174.343 47.9553 174.394 47.9338C174.445 47.9124 174.499 47.9014 174.554 47.9015C174.664 47.9014 174.769 47.9442 174.848 48.0207C174.927 48.0972 174.973 48.2014 174.977 48.3113C174.969 48.8638 174.748 49.392 174.36 49.7858C173.972 50.1796 173.448 50.4087 172.895 50.4254H172.928Z" fill="#1A004C"/>
<path d="M170.514 41.852V41.6633C170.521 41.5685 170.501 41.4736 170.455 41.3901C170.427 41.3057 170.378 41.2297 170.312 41.1689C170.252 41.1 170.173 41.0502 170.085 41.0258C170.003 40.9815 169.911 40.9591 169.818 40.9608H169.629C169.513 40.9942 169.408 41.057 169.324 41.1429L169.213 41.286C169.148 41.3914 169.114 41.5133 169.115 41.6373V41.8259C169.113 41.9191 169.135 42.0112 169.18 42.0926C169.205 42.1809 169.255 42.26 169.324 42.3203C169.383 42.3876 169.459 42.4372 169.545 42.4634C169.629 42.5077 169.723 42.5301 169.818 42.5285H170C170.118 42.4952 170.225 42.4325 170.312 42.3463L170.423 42.2032C170.483 42.0958 170.514 41.9749 170.514 41.852Z" fill="#1A004C"/>
<path d="M145.054 50.0676L144.957 50.2563C144.907 50.3347 144.878 50.4241 144.872 50.5165C144.857 50.6084 144.862 50.7024 144.887 50.7922C144.912 50.882 144.955 50.9654 145.015 51.0369C145.062 51.1148 145.129 51.1779 145.21 51.219L145.373 51.2841C145.497 51.3166 145.627 51.3166 145.75 51.2841L145.913 51.219C146.016 51.1551 146.103 51.0683 146.167 50.9653L146.264 50.7767C146.312 50.6979 146.338 50.6084 146.342 50.5165C146.371 50.4255 146.371 50.3277 146.342 50.2368C146.324 50.1467 146.281 50.0634 146.219 49.9961C146.17 49.9216 146.103 49.8611 146.023 49.8204L145.854 49.7489C145.733 49.7163 145.605 49.7163 145.483 49.7489L145.321 49.8204C145.215 49.8778 145.127 49.9634 145.067 50.0676H145.054Z" fill="#1A004C"/>
<path d="M108.906 132.843C107.528 132.842 106.156 132.656 104.827 132.29C104.721 132.259 104.631 132.189 104.576 132.093C104.521 131.997 104.506 131.883 104.534 131.776C104.549 131.722 104.574 131.672 104.608 131.628C104.642 131.584 104.684 131.547 104.733 131.52C104.781 131.492 104.835 131.475 104.89 131.469C104.945 131.463 105.001 131.467 105.055 131.483C107.126 132.052 109.299 132.151 111.413 131.773C113.528 131.395 115.532 130.549 117.278 129.298C117.318 129.25 117.369 129.213 117.426 129.188C117.483 129.163 117.545 129.151 117.607 129.153C117.669 129.155 117.73 129.171 117.786 129.2C117.841 129.229 117.889 129.269 117.926 129.319C117.964 129.369 117.989 129.427 118.001 129.488C118.014 129.549 118.012 129.612 117.996 129.672C117.981 129.733 117.952 129.789 117.912 129.836C117.872 129.884 117.822 129.922 117.765 129.948C115.183 131.803 112.085 132.801 108.906 132.804V132.843Z" fill="#1A004C"/>
<path d="M88.1686 95.9599C88.0699 95.9601 87.9742 95.9257 87.8982 95.8627C87.8221 95.7998 87.7705 95.7122 87.7523 95.6151C87.5376 94.4052 87.349 93.1758 87.1929 91.9594C87.0823 91.1202 86.9912 90.2681 86.9067 89.429C86.8976 89.3178 86.9329 89.2075 87.0048 89.1223C87.0767 89.037 87.1794 88.9835 87.2904 88.9736C87.3453 88.9673 87.4009 88.9722 87.4538 88.9879C87.5068 89.0037 87.556 89.03 87.5985 89.0652C87.6411 89.1004 87.676 89.1439 87.7013 89.193C87.7266 89.2421 87.7418 89.2958 87.7458 89.3509C87.8238 90.177 87.9149 91.0227 88.0255 91.8553C88.1751 93.0587 88.3638 94.2686 88.5784 95.4655C88.5974 95.575 88.5726 95.6875 88.5093 95.7788C88.446 95.8701 88.3493 95.9328 88.2402 95.9534L88.1686 95.9599Z" fill="#1A004C"/>
<path d="M87.3296 91.4845C86.2255 91.4451 85.1446 91.1574 84.167 90.6427C83.1895 90.1281 82.3406 89.3997 81.6833 88.5117C80.6676 87.0354 80.2428 85.2318 80.4929 83.4574C80.5008 83.4031 80.5195 83.3509 80.5477 83.3038C80.5759 83.2567 80.6131 83.2156 80.6572 83.183C80.7014 83.1503 80.7515 83.1267 80.8048 83.1135C80.8581 83.1004 80.9135 83.0978 80.9678 83.1061C81.022 83.1133 81.0743 83.1312 81.1217 83.1586C81.1691 83.1861 81.2105 83.2226 81.2438 83.2661C81.277 83.3096 81.3013 83.3592 81.3154 83.4122C81.3294 83.4651 81.3328 83.5202 81.3255 83.5745C81.1059 85.1384 81.4795 86.728 82.3728 88.0304C82.9607 88.804 83.7122 89.4383 84.5735 89.8881C85.4348 90.3379 86.3848 90.592 87.3556 90.6323C87.4666 90.6374 87.5711 90.686 87.6466 90.7675C87.7221 90.8491 87.7624 90.9571 87.7589 91.0682C87.7589 91.1239 87.7477 91.1792 87.726 91.2305C87.7043 91.2819 87.6724 91.3284 87.6324 91.3672C87.5924 91.4061 87.5449 91.4365 87.4929 91.4566C87.4409 91.4767 87.3853 91.4862 87.3296 91.4845Z" fill="#1A004C"/>
<path d="M167.828 66.8503C167.789 66.8565 167.749 66.8565 167.711 66.8503C167.657 66.8355 167.608 66.8101 167.565 66.7756C167.522 66.7411 167.486 66.6983 167.46 66.6497C167.434 66.6011 167.418 66.5477 167.413 66.4928C167.408 66.4378 167.414 66.3824 167.431 66.3299C167.647 65.6194 168.108 65.0085 168.732 64.6061C168.826 64.5565 168.934 64.5439 169.037 64.5708C169.14 64.5977 169.228 64.6622 169.285 64.7513C169.343 64.8405 169.364 64.948 169.346 65.0524C169.328 65.1568 169.271 65.2506 169.187 65.3152C168.731 65.608 168.392 66.0526 168.231 66.5706C168.202 66.654 168.147 66.726 168.075 66.7762C168.002 66.8265 167.916 66.8525 167.828 66.8503Z" fill="#1A004C"/>
<path d="M150.095 64.5085V64.7883C150.088 64.881 150.108 64.9737 150.154 65.055C150.182 65.1412 150.231 65.2193 150.297 65.2826C150.359 65.3495 150.437 65.3988 150.524 65.4257C150.605 65.4717 150.698 65.4921 150.791 65.4843H150.98C151.095 65.4532 151.201 65.3927 151.286 65.3087L151.396 65.1655C151.455 65.0578 151.486 64.9371 151.487 64.8143V64.5085C151.494 64.4137 151.474 64.3189 151.429 64.2353C151.4 64.1509 151.351 64.0749 151.286 64.0142C151.225 63.9452 151.146 63.8955 151.058 63.8711C150.976 63.8259 150.884 63.8034 150.791 63.806H150.602C150.486 63.8371 150.38 63.9002 150.297 63.9882L150.186 64.1313C150.123 64.2373 150.092 64.3592 150.095 64.4825V64.5085Z" fill="#1A004C"/>
<path d="M151.292 70.1353C151.133 70.1355 150.974 70.1224 150.817 70.0963C150.763 70.0876 150.711 70.0682 150.664 70.0392C150.617 70.0103 150.576 69.9723 150.544 69.9276C150.512 69.8828 150.489 69.8321 150.477 69.7784C150.465 69.7248 150.463 69.6692 150.472 69.6149C150.481 69.5605 150.5 69.5084 150.529 69.4616C150.558 69.4147 150.596 69.3741 150.641 69.342C150.686 69.31 150.736 69.2871 150.79 69.2748C150.844 69.2624 150.899 69.2608 150.954 69.2701C151.327 69.3224 151.707 69.2767 152.057 69.1375C152.407 68.9984 152.715 68.7706 152.951 68.4765C152.984 68.4333 153.026 68.3972 153.074 68.3702C153.122 68.3432 153.174 68.3259 153.229 68.3192C153.283 68.3126 153.338 68.3167 153.391 68.3314C153.444 68.3462 153.493 68.3711 153.536 68.405C153.623 68.4742 153.68 68.5747 153.695 68.6852C153.709 68.7956 153.68 68.9074 153.614 68.9969C153.336 69.3469 152.983 69.6306 152.581 69.8274C152.18 70.0243 151.739 70.1295 151.292 70.1353Z" fill="#1A004C"/>
<path d="M157.83 88.6158C157.719 88.6245 157.61 88.5889 157.526 88.5169C157.441 88.4449 157.389 88.3425 157.381 88.232C157.372 88.1216 157.408 88.0123 157.48 87.9281C157.552 87.844 157.654 87.7918 157.764 87.7832C158.006 87.7433 158.244 87.6802 158.473 87.5946C158.94 87.426 159.371 87.1699 159.742 86.84C159.828 86.7667 159.94 86.7306 160.053 86.7398C160.166 86.7489 160.27 86.8025 160.344 86.8888C160.417 86.975 160.453 87.0869 160.444 87.1997C160.435 87.3126 160.381 87.4172 160.295 87.4905C159.849 87.8926 159.33 88.206 158.766 88.4142C158.485 88.5137 158.196 88.5878 157.901 88.6354L157.83 88.6158Z" fill="#1A004C"/>
<path d="M144.078 59.0445H144C143.974 59.0474 143.948 59.0474 143.922 59.0445L143.85 59.0054L143.785 58.9534L143.733 58.8884C143.718 58.8659 143.705 58.8419 143.694 58.8168C143.691 58.7909 143.691 58.7647 143.694 58.7387C143.691 58.7106 143.691 58.6823 143.694 58.6542C143.691 58.6283 143.691 58.602 143.694 58.5761C143.69 58.5502 143.69 58.5239 143.694 58.4981C143.716 58.4475 143.747 58.4013 143.785 58.3615L143.85 58.3029H143.922H144C144.068 58.2902 144.137 58.2943 144.203 58.3147C144.269 58.3351 144.329 58.3712 144.377 58.42C144.398 58.4387 144.416 58.4606 144.429 58.485L144.468 58.5566C144.472 58.5825 144.472 58.6088 144.468 58.6347C144.471 58.6606 144.471 58.6868 144.468 58.7127C144.472 58.7408 144.472 58.7692 144.468 58.7973C144.471 58.8232 144.471 58.8494 144.468 58.8753L144.429 58.9469L144.377 59.0119C144.285 59.0585 144.178 59.0701 144.078 59.0445Z" fill="#ECF2FD"/>
<path d="M161.134 66.6031C161.024 66.6015 160.919 66.5571 160.842 66.4794C160.764 66.4016 160.719 66.2967 160.718 66.1868C160.718 66.1246 160.731 66.0632 160.758 66.0068C160.784 65.9505 160.822 65.9007 160.87 65.8609C160.918 65.8211 160.974 65.7924 161.034 65.7768C161.095 65.7612 161.158 65.759 161.219 65.7705H161.297L161.368 65.8095L161.433 65.8616C161.512 65.9414 161.556 66.0488 161.557 66.1608C161.56 66.1867 161.56 66.2129 161.557 66.2389C161.56 66.2648 161.56 66.291 161.557 66.3169L161.518 66.3885L161.466 66.4535L161.401 66.5056C161.38 66.5235 161.356 66.5368 161.329 66.5446H161.251L161.134 66.6031Z" fill="white"/>
<path d="M133.507 157.783C133.014 157.793 132.528 157.659 132.109 157.399C131.778 157.152 131.503 156.837 131.303 156.476C131.102 156.115 130.98 155.716 130.945 155.304C130.865 154.56 130.946 153.807 131.18 153.096C131.415 152.385 131.798 151.732 132.304 151.18C132.34 151.138 132.384 151.104 132.434 151.08C132.483 151.055 132.537 151.04 132.592 151.037C132.647 151.033 132.702 151.04 132.754 151.058C132.807 151.076 132.855 151.104 132.896 151.141C132.977 151.216 133.027 151.319 133.034 151.429C133.041 151.54 133.006 151.648 132.935 151.733C132.508 152.194 132.184 152.74 131.984 153.335C131.784 153.931 131.714 154.562 131.777 155.187C131.798 155.48 131.879 155.765 132.016 156.025C132.152 156.285 132.341 156.513 132.571 156.696C133.28 157.165 134.607 156.937 135.732 156.143C135.824 156.093 135.93 156.078 136.032 156.102C136.134 156.126 136.223 156.186 136.283 156.272C136.343 156.357 136.369 156.462 136.356 156.566C136.343 156.669 136.292 156.765 136.213 156.833C135.428 157.416 134.485 157.747 133.507 157.783Z" fill="#1A004C"/>
<path d="M139.466 114.987L143.369 108.274C143.48 109.426 143.972 110.509 144.768 111.351C145.1 111.681 145.477 111.963 145.887 112.19L139.466 114.987Z" fill="#1A004C"/>
<path d="M184.897 133.422C184.811 133.422 184.728 133.395 184.659 133.346C184.589 133.298 184.536 133.229 184.506 133.149C183.927 131.574 183.362 129.974 182.828 128.387C180.85 122.52 179.174 116.556 177.806 110.518C177.783 110.409 177.803 110.296 177.863 110.202C177.923 110.108 178.017 110.042 178.125 110.017C178.179 110.005 178.235 110.003 178.289 110.012C178.344 110.022 178.396 110.042 178.442 110.071C178.489 110.101 178.529 110.14 178.561 110.185C178.592 110.231 178.614 110.282 178.626 110.336C179.985 116.344 181.653 122.277 183.622 128.114C184.155 129.701 184.715 131.295 185.293 132.856C185.331 132.96 185.327 133.075 185.281 133.176C185.234 133.278 185.15 133.356 185.046 133.396C184.999 133.414 184.948 133.423 184.897 133.422Z" fill="#1A004C"/>
<path d="M136.812 130.904C136.708 130.905 136.608 130.866 136.531 130.796C136.454 130.727 136.406 130.631 136.396 130.527C136.163 127.973 136.257 125.401 136.676 122.871C137.398 118.551 138.907 115.442 141.19 110.733C142.452 108.131 143.857 105.529 145.366 103.011C145.426 102.917 145.519 102.849 145.627 102.823C145.735 102.796 145.849 102.812 145.945 102.868C146.039 102.926 146.107 103.018 146.133 103.125C146.16 103.232 146.144 103.345 146.088 103.441C144.592 105.938 143.194 108.514 141.945 111.097C139.694 115.741 138.204 118.812 137.508 123.007C137.1 125.466 137.006 127.967 137.229 130.449C137.234 130.504 137.229 130.559 137.212 130.612C137.196 130.664 137.17 130.713 137.135 130.755C137.1 130.798 137.057 130.833 137.008 130.858C136.959 130.884 136.906 130.899 136.851 130.904H136.812Z" fill="#1A004C"/>
<path d="M142.686 108.82C142.592 108.82 142.501 108.789 142.427 108.731C142.352 108.673 142.299 108.593 142.276 108.501L141.717 106.264C141.69 106.156 141.707 106.042 141.765 105.947C141.822 105.852 141.915 105.783 142.023 105.756C142.13 105.73 142.245 105.747 142.34 105.804C142.435 105.861 142.503 105.954 142.53 106.062L143.089 108.3C143.103 108.353 143.106 108.409 143.098 108.463C143.09 108.518 143.071 108.57 143.043 108.617C143.014 108.664 142.977 108.706 142.932 108.738C142.888 108.771 142.837 108.794 142.784 108.807L142.686 108.82Z" fill="#1A004C"/>
<path d="M161.134 254.758H161.05C160.941 254.733 160.846 254.667 160.786 254.573C160.725 254.48 160.703 254.367 160.724 254.257C162.144 247.74 163.077 241.125 163.515 234.469C163.892 228.621 163.892 222.754 163.515 216.906C163.51 216.834 163.523 216.762 163.554 216.697C163.585 216.632 163.632 216.576 163.691 216.535C163.75 216.494 163.819 216.469 163.89 216.462C163.962 216.456 164.034 216.467 164.1 216.496C165.226 216.997 165.772 216.964 165.863 216.867C165.954 216.769 165.915 215.676 164.439 213.777C164.38 213.703 164.348 213.611 164.348 213.517C164.493 206.242 164.121 198.967 163.235 191.745C162.995 189.793 162.715 187.842 162.396 185.89C162.381 185.78 162.409 185.669 162.475 185.579C162.54 185.489 162.638 185.428 162.747 185.409C162.857 185.392 162.968 185.419 163.058 185.483C163.148 185.548 163.21 185.645 163.229 185.754C163.541 187.705 163.827 189.657 164.068 191.647C164.954 198.85 165.33 206.105 165.193 213.361C165.844 214.206 167.385 216.464 166.494 217.426C166.11 217.83 165.414 217.849 164.413 217.498C164.752 223.159 164.737 228.836 164.367 234.495C163.928 241.195 162.99 247.853 161.563 254.413C161.547 254.514 161.495 254.605 161.415 254.669C161.336 254.732 161.236 254.764 161.134 254.758Z" fill="#1A004C"/>
<path d="M156.932 130.924L154.798 131.822L164.614 138.808L149.256 142.958L144.865 136.017L141.034 126.91L138.139 120.015L135.96 114.811L135.706 114.2C135.696 114.176 135.69 114.15 135.689 114.124C135.689 114.098 135.694 114.072 135.703 114.048C135.713 114.023 135.728 114.001 135.746 113.983C135.764 113.964 135.786 113.949 135.811 113.939L145.711 109.783L147.305 109.132L149.133 108.365L150.726 107.714L158.487 104.462C158.759 104.349 159.066 104.349 159.338 104.461C159.611 104.573 159.829 104.789 159.944 105.06L165.649 118.669L166.11 119.774L167.119 122.162L167.483 123.04L167.574 123.261L168.745 126.045L165.922 127.229L159.027 130.117L158.526 130.332L156.932 130.924Z" fill="#ECF2FD"/>
<path d="M164.614 138.808L149.256 143.485L144.865 135.991L141.034 126.884L138.139 119.989L154.798 131.848L164.614 138.808Z" fill="#B6C8F0"/>
<path d="M171.679 135.848L169.968 136.564L169.578 136.726L167.828 137.461L164.614 138.808L154.798 131.822L159.027 130.046L165.922 127.157L168.745 125.974L172.277 134.391C172.39 134.664 172.39 134.97 172.278 135.243C172.166 135.516 171.95 135.733 171.679 135.848Z" fill="#ECF2FD"/>
<path d="M164.614 138.808L149.256 143.205L145.06 135.939L143.662 133.422C144.872 133.506 146.087 133.506 147.298 133.422C149.861 133.247 152.387 132.708 154.798 131.821L164.614 138.808Z" fill="#1A004C"/>
<path d="M178.802 113.517C178.712 113.518 178.625 113.488 178.554 113.432L177.787 112.86C177.733 112.831 177.687 112.792 177.65 112.743C177.614 112.695 177.588 112.639 177.575 112.58C177.563 112.521 177.563 112.46 177.576 112.401C177.589 112.342 177.615 112.286 177.652 112.238C177.689 112.19 177.736 112.151 177.79 112.123C177.844 112.095 177.903 112.079 177.963 112.076C178.024 112.073 178.084 112.084 178.14 112.107C178.196 112.13 178.247 112.165 178.288 112.209L179.055 112.782C179.128 112.834 179.182 112.907 179.209 112.992C179.236 113.077 179.236 113.168 179.207 113.253C179.179 113.337 179.124 113.41 179.051 113.461C178.978 113.512 178.891 113.539 178.802 113.536V113.517Z" fill="#1A004C"/>
<path d="M191.148 138.509C191.036 138.507 190.929 138.463 190.849 138.385L189.665 137.201C189.619 137.164 189.582 137.118 189.555 137.065C189.528 137.012 189.513 136.955 189.51 136.896C189.507 136.837 189.516 136.778 189.537 136.723C189.558 136.668 189.59 136.618 189.631 136.576C189.673 136.534 189.723 136.501 189.778 136.48C189.832 136.458 189.891 136.449 189.95 136.451C190.009 136.454 190.067 136.468 190.119 136.494C190.172 136.521 190.219 136.557 190.257 136.603L191.441 137.793C191.518 137.872 191.562 137.978 191.562 138.089C191.562 138.2 191.518 138.306 191.441 138.385C191.363 138.463 191.258 138.507 191.148 138.509Z" fill="#1A004C"/>
<path d="M189.118 138.853C189.063 138.854 189.009 138.843 188.959 138.822C188.908 138.801 188.863 138.769 188.825 138.73L186.418 136.323C186.378 136.285 186.347 136.239 186.325 136.188C186.303 136.137 186.292 136.082 186.292 136.027C186.292 135.972 186.303 135.917 186.325 135.866C186.347 135.815 186.378 135.769 186.418 135.731C186.497 135.654 186.604 135.61 186.714 135.61C186.825 135.61 186.931 135.654 187.01 135.731L189.417 138.138C189.495 138.217 189.538 138.323 189.538 138.434C189.538 138.544 189.495 138.651 189.417 138.73C189.378 138.77 189.332 138.801 189.28 138.822C189.229 138.844 189.174 138.854 189.118 138.853Z" fill="#1A004C"/>
<path d="M141.288 155.233C141.198 155.233 141.111 155.205 141.038 155.152C140.966 155.099 140.912 155.025 140.884 154.94C140.867 154.887 140.861 154.832 140.865 154.777C140.87 154.722 140.885 154.668 140.91 154.619C140.936 154.57 140.971 154.527 141.013 154.491C141.056 154.456 141.105 154.429 141.157 154.413C143.651 153.628 146.185 152.977 148.749 152.462C158.585 150.503 168.711 150.503 178.548 152.462C178.648 152.492 178.733 152.558 178.787 152.647C178.841 152.736 178.86 152.842 178.841 152.945C178.821 153.047 178.765 153.139 178.682 153.202C178.599 153.266 178.496 153.296 178.392 153.288C168.662 151.352 158.647 151.352 148.918 153.288C146.383 153.805 143.877 154.456 141.411 155.239C141.37 155.243 141.328 155.241 141.288 155.233Z" fill="#1A004C"/>
<path d="M156.106 105.464C156.022 105.464 155.94 105.44 155.87 105.394C155.801 105.347 155.747 105.281 155.715 105.203C155.675 105.1 155.676 104.984 155.72 104.882C155.764 104.78 155.846 104.699 155.95 104.657L157.348 104.098C157.452 104.057 157.567 104.059 157.669 104.104C157.771 104.148 157.851 104.231 157.891 104.335C157.932 104.438 157.93 104.554 157.885 104.656C157.841 104.758 157.757 104.838 157.654 104.878L156.262 105.438C156.212 105.456 156.159 105.464 156.106 105.464Z" fill="#1A004C"/>
<path d="M167.567 80.3025H167.483L166.084 80.0228C165.983 79.9929 165.897 79.9264 165.842 79.8363C165.788 79.7462 165.769 79.639 165.789 79.5356C165.81 79.4323 165.868 79.3403 165.952 79.2776C166.037 79.2149 166.142 79.186 166.247 79.1967L167.645 79.4764C167.755 79.4984 167.851 79.5627 167.913 79.6553C167.975 79.7479 167.998 79.8612 167.977 79.9707C167.958 80.0648 167.906 80.1493 167.831 80.2098C167.757 80.2702 167.663 80.303 167.567 80.3025Z" fill="#1A004C"/>
<path d="M193.282 93.1627C193.221 93.1634 193.162 93.1509 193.107 93.1262C193.052 93.1015 193.003 93.0651 192.963 93.0196C192.339 92.2951 191.617 91.6622 190.816 91.1397C190.724 91.0786 190.659 90.9837 190.636 90.8755C190.613 90.7672 190.633 90.6542 190.693 90.5608C190.722 90.5144 190.761 90.4744 190.806 90.443C190.852 90.4117 190.903 90.3896 190.956 90.3781C191.01 90.3666 191.066 90.3659 191.12 90.3761C191.174 90.3862 191.226 90.407 191.272 90.4372C191.679 90.7008 192.068 90.9921 192.436 91.3088C192.853 91.6671 193.242 92.0564 193.6 92.4732C193.672 92.5581 193.708 92.6677 193.699 92.7785C193.69 92.8893 193.639 92.9923 193.555 93.0652C193.478 93.1284 193.381 93.1629 193.282 93.1627Z" fill="#1A004C"/>
<path d="M161.693 127.834C161.615 127.832 161.539 127.809 161.472 127.769C161.379 127.709 161.313 127.614 161.289 127.506C161.264 127.398 161.284 127.284 161.342 127.19L161.44 127.034C161.469 126.987 161.507 126.946 161.552 126.914C161.597 126.882 161.648 126.86 161.702 126.848C161.756 126.836 161.812 126.834 161.866 126.844C161.92 126.854 161.972 126.874 162.019 126.904C162.065 126.932 162.106 126.97 162.138 127.014C162.17 127.059 162.192 127.109 162.204 127.163C162.217 127.216 162.218 127.271 162.208 127.325C162.199 127.379 162.179 127.43 162.149 127.476L162.051 127.632C162.014 127.694 161.962 127.745 161.899 127.78C161.836 127.816 161.765 127.834 161.693 127.834Z" fill="#F6ABA9"/>
<path d="M144.078 118.044C144.002 118.045 143.927 118.026 143.861 117.987C143.795 117.949 143.741 117.893 143.705 117.826C143.669 117.759 143.651 117.683 143.655 117.607C143.659 117.53 143.684 117.457 143.727 117.394L143.825 117.237C143.883 117.143 143.977 117.077 144.085 117.052C144.193 117.027 144.306 117.045 144.4 117.104C144.494 117.163 144.561 117.256 144.586 117.364C144.611 117.472 144.592 117.586 144.534 117.68L144.436 117.836C144.4 117.899 144.348 117.952 144.285 117.989C144.222 118.025 144.151 118.044 144.078 118.044Z" fill="#F6ABA9"/>
<path d="M160.015 115.253C159.937 115.25 159.861 115.228 159.794 115.188C159.701 115.128 159.635 115.034 159.61 114.926C159.586 114.817 159.605 114.704 159.664 114.609L159.762 114.453C159.822 114.36 159.916 114.294 160.024 114.269C160.131 114.243 160.245 114.26 160.34 114.317C160.434 114.377 160.5 114.471 160.524 114.58C160.548 114.688 160.529 114.801 160.471 114.896L160.373 115.052C160.336 115.113 160.283 115.164 160.221 115.2C160.158 115.235 160.087 115.254 160.015 115.253Z" fill="#4C4139"/>
<path d="M189.509 151.011C189.541 151.271 189.567 151.538 189.6 151.811L182.015 144.942L181.8 144.415L188.019 143.849L189.509 151.011Z" fill="#1A004C"/>
<path d="M115.287 141.006C115.193 141.006 115.102 140.975 115.028 140.917C114.954 140.86 114.901 140.779 114.878 140.688C114.864 140.634 114.861 140.579 114.869 140.524C114.877 140.47 114.896 140.417 114.924 140.37C114.953 140.323 114.99 140.282 115.035 140.249C115.079 140.217 115.13 140.193 115.183 140.18C115.834 140.018 116.484 139.836 117.135 139.627C117.883 139.387 118.624 139.107 119.34 138.801C119.443 138.758 119.558 138.757 119.662 138.798C119.766 138.839 119.849 138.92 119.893 139.022C119.936 139.125 119.938 139.241 119.896 139.344C119.855 139.448 119.774 139.531 119.672 139.575C118.93 139.888 118.169 140.174 117.395 140.428C116.745 140.636 116.094 140.831 115.411 140.993L115.287 141.006Z" fill="#1A004C"/>
<path d="M77.819 76.3865C77.7512 76.3877 77.6841 76.3721 77.6238 76.341C76.0431 75.4823 75.1715 73.9472 75.4512 72.5356C75.5915 71.9018 75.9312 71.3296 76.4204 70.9029C76.5003 70.8269 76.6062 70.7845 76.7164 70.7845C76.8266 70.7845 76.9326 70.8269 77.0124 70.9029C77.0899 70.9819 77.1332 71.0882 77.1332 71.1988C77.1332 71.3095 77.0899 71.4158 77.0124 71.4948C76.6568 71.7991 76.4082 72.2096 76.3033 72.6657C76.0952 73.7 76.8107 74.8969 78.0467 75.5669C78.131 75.6098 78.1981 75.6802 78.2371 75.7664C78.2761 75.8526 78.2845 75.9496 78.261 76.0412C78.2375 76.1328 78.1835 76.2138 78.1079 76.2706C78.0323 76.3275 77.9396 76.3569 77.845 76.354L77.819 76.3865Z" fill="#1A004C"/>
<path d="M81.1953 81.2913C80.0634 81.2913 78.9576 80.6408 77.8843 79.9903C76.8109 79.3398 74.8855 78.1624 74.8855 76.5557C74.8666 76.1444 75.0063 75.7416 75.2758 75.4303C75.5195 75.2196 75.8116 75.0724 76.126 75.0021C76.4404 74.9317 76.7673 74.9403 77.0776 75.027C77.1765 75.0609 77.2593 75.1303 77.3101 75.2216C77.3608 75.313 77.3759 75.4199 77.3525 75.5218C77.329 75.6236 77.2687 75.7132 77.1831 75.7732C77.0975 75.8332 76.9927 75.8594 76.889 75.8466C76.7222 75.7945 76.5458 75.7815 76.3732 75.8086C76.2006 75.8357 76.0365 75.9021 75.8937 76.0028C75.7704 76.1595 75.7101 76.3567 75.7246 76.5557C75.7246 77.6875 77.4744 78.7608 78.3266 79.2747C79.5885 80.0423 80.7855 80.7709 81.8718 80.3545C82.2446 80.208 82.5706 79.9629 82.815 79.6455C82.8497 79.6023 82.8926 79.5665 82.9413 79.5401C82.99 79.5137 83.0435 79.4973 83.0987 79.4918C83.1538 79.4864 83.2094 79.492 83.2624 79.5083C83.3153 79.5247 83.3645 79.5514 83.4069 79.587C83.4908 79.6578 83.5438 79.7586 83.5547 79.8678C83.5657 79.9771 83.5337 80.0863 83.4655 80.1724C83.1261 80.6058 82.6769 80.9405 82.1645 81.1416C81.8532 81.2501 81.5248 81.3008 81.1953 81.2913Z" fill="#1A004C"/>
<path d="M78.3784 73.5959C78.3145 73.5952 78.2515 73.5803 78.1941 73.5521C78.1367 73.524 78.0863 73.4834 78.0466 73.4333L76.0952 70.9159C76.0551 70.874 76.0243 70.8242 76.0047 70.7697C75.985 70.7152 75.9769 70.6571 75.981 70.5993C75.9851 70.5415 76.0011 70.4852 76.0282 70.434C76.0553 70.3827 76.0928 70.3377 76.1382 70.3018C76.1837 70.2658 76.2362 70.2398 76.2923 70.2253C76.3484 70.2108 76.4069 70.2082 76.4641 70.2177C76.5213 70.2271 76.5758 70.2484 76.6243 70.2801C76.6728 70.3119 76.7141 70.3534 76.7457 70.402L78.6971 72.9194C78.731 72.9625 78.756 73.0119 78.7707 73.0647C78.7854 73.1174 78.7896 73.1726 78.7829 73.227C78.7763 73.2814 78.7589 73.3339 78.7319 73.3816C78.7049 73.4293 78.6688 73.4712 78.6256 73.5049C78.5545 73.56 78.4682 73.5918 78.3784 73.5959Z" fill="#1A004C"/>
<path d="M168.179 151.792C167.788 151.746 167.379 151.707 166.962 151.675L157.745 141.111C157.672 141.026 157.636 140.917 157.643 140.807C157.65 140.696 157.701 140.592 157.784 140.519C157.825 140.482 157.873 140.454 157.925 140.436C157.978 140.418 158.033 140.411 158.088 140.414C158.143 140.418 158.197 140.432 158.246 140.457C158.296 140.482 158.34 140.516 158.376 140.558L168.179 151.792Z" fill="#7F90FB"/>
<path d="M147.591 108.963L157.27 130.599L157.328 130.735L158.317 132.934C157.576 132.609 156.802 132.283 156.001 131.971L155.748 131.399L155.637 131.158L146.003 109.601L147.591 108.963Z" fill="#7F90FB"/>
<path d="M150.863 107.591L151.006 107.539L158.356 123.996C157.615 123.677 156.841 123.346 156.047 123.04L149.412 108.196L150.863 107.591Z" fill="#4C4139"/>
<path d="M76.843 53.6258C76.7331 53.6175 76.6308 53.5666 76.5579 53.484C76.485 53.4014 76.4473 53.2935 76.4527 53.1835L76.7974 48.1422C76.8043 48.0318 76.8548 47.9286 76.9378 47.8554C77.0207 47.7822 77.1293 47.745 77.2398 47.7519C77.3502 47.7588 77.4533 47.8093 77.5265 47.8922C77.5997 47.9752 77.6369 48.0838 77.63 48.1942L77.2918 53.2355C77.2885 53.2908 77.2742 53.3449 77.2498 53.3946C77.2253 53.4443 77.1912 53.4886 77.1494 53.525C77.1076 53.5613 77.059 53.589 77.0063 53.6063C76.9537 53.6236 76.8982 53.6303 76.843 53.6258Z" fill="#7F90FB"/>
<path d="M79.3609 55.6359C79.2912 55.6363 79.2226 55.6193 79.1612 55.5863C79.0998 55.5534 79.0477 55.5056 79.0096 55.4472C78.9794 55.4012 78.9587 55.3496 78.9485 55.2955C78.9384 55.2414 78.9391 55.1858 78.9506 55.132C78.9621 55.0781 78.9841 55.0271 79.0155 54.9818C79.0468 54.9366 79.0868 54.898 79.1332 54.8683L82.0474 52.9949C82.0935 52.9647 82.145 52.9439 82.1991 52.9338C82.2533 52.9236 82.3088 52.9243 82.3627 52.9358C82.4165 52.9473 82.4676 52.9694 82.5128 53.0007C82.5581 53.0321 82.5967 53.0721 82.6264 53.1185C82.6566 53.1645 82.6773 53.2161 82.6875 53.2702C82.6976 53.3243 82.6969 53.3799 82.6854 53.4337C82.6739 53.4876 82.6518 53.5386 82.6205 53.5839C82.5891 53.6291 82.5491 53.6677 82.5028 53.6974L79.5951 55.5708C79.5252 55.6153 79.4437 55.638 79.3609 55.6359Z" fill="#7F90FB"/>
<path d="M216.211 132.862C216.151 132.863 216.091 132.85 216.036 132.826C215.981 132.801 215.932 132.765 215.893 132.719L212.536 128.816C212.5 128.773 212.473 128.724 212.456 128.671C212.439 128.618 212.433 128.562 212.438 128.506C212.443 128.451 212.459 128.397 212.484 128.347C212.51 128.298 212.545 128.254 212.588 128.218C212.631 128.182 212.68 128.155 212.733 128.138C212.787 128.121 212.843 128.115 212.898 128.12C212.954 128.125 213.008 128.14 213.057 128.166C213.107 128.192 213.151 128.227 213.187 128.27L216.543 132.173C216.615 132.258 216.65 132.367 216.642 132.478C216.633 132.589 216.581 132.692 216.498 132.765C216.417 132.831 216.315 132.866 216.211 132.862Z" fill="#1A004C"/>
<path d="M214.813 131.184C214.715 131.184 214.62 131.15 214.546 131.086C214.503 131.051 214.468 131.008 214.442 130.959C214.416 130.91 214.4 130.857 214.396 130.801C214.391 130.746 214.397 130.691 214.414 130.638C214.431 130.585 214.458 130.537 214.494 130.495C214.546 130.429 215.795 128.933 215.261 127.567C215.158 127.305 215.001 127.068 214.8 126.871C214.722 126.792 214.679 126.686 214.679 126.575C214.679 126.465 214.722 126.358 214.8 126.279C214.838 126.239 214.884 126.208 214.935 126.186C214.985 126.164 215.04 126.153 215.096 126.153C215.151 126.153 215.206 126.164 215.256 126.186C215.307 126.208 215.353 126.239 215.392 126.279C215.674 126.555 215.896 126.888 216.042 127.255C216.758 129.057 215.3 130.839 215.131 131.041C215.093 131.088 215.044 131.125 214.989 131.149C214.933 131.174 214.873 131.186 214.813 131.184Z" fill="#1A004C"/>
<path d="M171.477 159.702C171.421 159.703 171.365 159.692 171.314 159.669C164.328 156.657 156.734 155.32 149.139 155.766C149.084 155.771 149.029 155.764 148.977 155.746C148.924 155.729 148.876 155.701 148.835 155.665C148.794 155.628 148.76 155.584 148.736 155.534C148.713 155.485 148.699 155.431 148.697 155.376C148.693 155.321 148.7 155.266 148.718 155.214C148.736 155.163 148.764 155.115 148.8 155.074C148.836 155.033 148.88 154.999 148.929 154.975C148.979 154.951 149.032 154.937 149.087 154.933C156.812 154.461 164.54 155.813 171.646 158.882C171.696 158.903 171.742 158.934 171.781 158.973C171.819 159.012 171.849 159.059 171.87 159.109C171.891 159.16 171.901 159.214 171.9 159.269C171.9 159.324 171.889 159.378 171.867 159.428C171.837 159.508 171.784 159.576 171.714 159.625C171.645 159.674 171.562 159.701 171.477 159.702Z" fill="#1A004C"/>
<path d="M163.092 57.3792C162.995 57.3763 162.902 57.3404 162.829 57.2774C162.756 57.2144 162.706 57.1282 162.689 57.0331C162.671 56.9379 162.687 56.8397 162.733 56.7547C162.779 56.6697 162.853 56.6031 162.942 56.5661C164.472 55.9829 165.72 54.8351 166.429 53.3591C166.453 53.3096 166.486 53.2652 166.527 53.2286C166.568 53.192 166.616 53.1638 166.668 53.1457C166.72 53.1276 166.775 53.1199 166.83 53.123C166.885 53.1261 166.939 53.1401 166.988 53.164C167.038 53.1879 167.082 53.2213 167.119 53.2624C167.155 53.3035 167.184 53.3513 167.202 53.4033C167.22 53.4552 167.228 53.5102 167.224 53.5652C167.221 53.6201 167.207 53.6739 167.183 53.7234C166.388 55.3958 164.975 56.6945 163.242 57.3466C163.194 57.3674 163.143 57.3785 163.092 57.3792Z" fill="#F6ABA9"/>
<path d="M160.854 43.4326H160.75C160.525 43.3868 160.312 43.2957 160.123 43.1649C159.934 43.034 159.773 42.8662 159.651 42.6715C159.15 41.7869 159.651 40.4664 160.894 39.6077C160.938 39.5752 160.989 39.552 161.043 39.5393C161.096 39.5266 161.152 39.5248 161.207 39.5339C161.261 39.5429 161.313 39.5628 161.36 39.5922C161.407 39.6216 161.447 39.6601 161.479 39.7053C161.543 39.7961 161.568 39.9085 161.55 40.018C161.532 40.1276 161.471 40.2255 161.381 40.2907C160.393 40.9868 160.171 41.8844 160.38 42.2422C160.52 42.4338 160.731 42.5623 160.965 42.6C161.06 42.6297 161.142 42.6922 161.196 42.7763C161.249 42.8604 161.271 42.9608 161.258 43.0597C161.245 43.1585 161.197 43.2496 161.123 43.3166C161.049 43.3837 160.954 43.4225 160.854 43.4261V43.4326Z" fill="#ECF2FD"/>
<path d="M206.564 143.205C204.626 139.696 201.851 136.719 198.485 134.541C196.825 133.484 195.04 132.639 193.171 132.023C190.972 132.327 188.737 132.606 186.464 132.862C178.294 133.786 170.443 134.326 162.936 134.567C161.668 133.294 160.205 132.232 158.604 131.418C157.049 130.631 156.548 130.703 154.18 130.228C152.71 129.929 151.578 129.694 150.362 129.33C147.942 128.628 146.836 127.977 146.459 128.393C146.082 128.81 146.576 129.48 146.739 129.785C148.04 132.264 151.142 133.422 152.847 133.91C151.305 134.597 149.601 134.839 147.929 134.609C146.256 134.379 144.682 133.686 143.382 132.609C143.191 133.05 143.096 133.526 143.102 134.007C143.141 136.212 145.412 137.526 145.62 137.643C145.184 138.944 145.373 139.595 145.62 139.94C145.867 140.284 146.309 140.291 146.693 140.831C147.077 141.371 146.869 141.904 147.279 142.399C147.572 142.713 147.969 142.912 148.397 142.958C148.402 143.095 148.424 143.23 148.462 143.361C148.512 143.514 148.584 143.659 148.677 143.791C149.251 144.434 150.049 144.834 150.908 144.909C151.786 145 152.669 144.803 153.426 144.35C155.109 144.459 156.799 144.365 158.461 144.07C160.297 143.747 162.084 143.185 163.775 142.399C165.304 142.75 167.632 143.264 170.482 143.791C180.408 145.644 187.817 146.972 196.501 145.742C199.934 145.247 203.307 144.397 206.564 143.205Z" fill="#F6ABA9"/>
<path d="M143.525 136.219C143.451 136.22 143.379 136.202 143.314 136.165C143.25 136.128 143.197 136.075 143.161 136.011C142.511 134.885 141.977 133.344 142.68 132.693C143.382 132.043 145.08 132.641 146.583 134.098C146.663 134.175 146.709 134.28 146.712 134.391C146.714 134.503 146.672 134.61 146.596 134.69C146.519 134.77 146.413 134.817 146.302 134.819C146.191 134.822 146.084 134.78 146.004 134.703C144.527 133.298 143.402 133.162 143.22 133.311C143.037 133.461 143.089 134.28 143.87 135.588C143.898 135.635 143.916 135.688 143.924 135.742C143.932 135.797 143.929 135.852 143.915 135.905C143.901 135.958 143.876 136.008 143.843 136.052C143.81 136.096 143.768 136.133 143.72 136.16C143.661 136.196 143.594 136.216 143.525 136.219Z" fill="#1A004C"/>
<path d="M147.129 138.457C146.52 138.457 145.915 138.353 145.34 138.151C144.912 138.002 144.506 137.799 144.13 137.546C144.084 137.515 144.045 137.476 144.014 137.431C143.984 137.385 143.963 137.334 143.952 137.281C143.941 137.227 143.941 137.171 143.951 137.118C143.962 137.064 143.983 137.013 144.013 136.967C144.043 136.921 144.082 136.882 144.128 136.851C144.173 136.821 144.224 136.799 144.278 136.788C144.332 136.778 144.387 136.777 144.441 136.788C144.495 136.798 144.546 136.819 144.592 136.85C144.912 137.063 145.257 137.236 145.62 137.364C146.113 137.537 146.632 137.623 147.155 137.617C147.257 137.63 147.351 137.68 147.419 137.757C147.488 137.834 147.525 137.934 147.525 138.037C147.525 138.14 147.488 138.24 147.419 138.317C147.351 138.394 147.257 138.444 147.155 138.457H147.129Z" fill="#1A004C"/>
<path d="M148.964 141.124C146.824 141.124 145.243 140.473 144.807 139.302C144.66 138.854 144.66 138.371 144.807 137.923C144.837 137.816 144.909 137.726 145.006 137.671C145.103 137.617 145.217 137.603 145.324 137.634C145.431 137.664 145.522 137.735 145.576 137.832C145.63 137.929 145.644 138.044 145.614 138.151C145.522 138.43 145.522 138.73 145.614 139.009C145.945 139.894 147.858 140.597 150.746 140.141C150.8 140.132 150.856 140.134 150.91 140.146C150.963 140.158 151.014 140.181 151.059 140.213C151.103 140.245 151.141 140.286 151.17 140.333C151.199 140.38 151.219 140.432 151.227 140.486C151.243 140.596 151.214 140.708 151.149 140.798C151.083 140.887 150.986 140.948 150.876 140.967C150.244 141.069 149.604 141.121 148.964 141.124Z" fill="#1A004C"/>
<path d="M147.747 143.205C147.699 143.212 147.651 143.212 147.604 143.205C147.167 143.057 146.807 142.742 146.602 142.328C146.397 141.915 146.364 141.437 146.511 141C146.553 140.904 146.629 140.827 146.725 140.785C146.821 140.742 146.929 140.736 147.029 140.768C147.128 140.801 147.212 140.869 147.264 140.96C147.317 141.051 147.333 141.158 147.311 141.26C147.25 141.446 147.25 141.647 147.311 141.833C147.361 141.966 147.439 142.086 147.54 142.186C147.641 142.286 147.763 142.363 147.896 142.412C147.993 142.442 148.075 142.506 148.127 142.593C148.18 142.679 148.199 142.781 148.182 142.881C148.164 142.98 148.111 143.07 148.032 143.134C147.953 143.197 147.854 143.229 147.753 143.225L147.747 143.205Z" fill="#1A004C"/>
<path d="M162.253 135.659C162.164 135.66 162.078 135.633 162.006 135.582C161.934 135.53 161.88 135.457 161.853 135.373C161.825 135.289 161.825 135.198 161.853 135.114C161.88 135.03 161.934 134.956 162.006 134.905C162.378 134.612 162.802 134.392 163.255 134.254C163.969 134.049 164.726 134.049 165.44 134.254C165.494 134.268 165.544 134.292 165.588 134.325C165.632 134.359 165.669 134.401 165.696 134.449C165.724 134.497 165.741 134.55 165.747 134.605C165.754 134.66 165.749 134.715 165.733 134.768C165.701 134.875 165.629 134.965 165.532 135.02C165.435 135.074 165.32 135.089 165.213 135.061C164.65 134.896 164.052 134.896 163.489 135.061C163.134 135.162 162.801 135.328 162.507 135.549C162.437 135.614 162.348 135.653 162.253 135.659Z" fill="#1A004C"/>
<path d="M153.445 134.599C153.104 134.599 152.763 134.58 152.424 134.541C151.927 134.482 151.436 134.384 150.954 134.248C150.895 134.238 150.839 134.216 150.789 134.183C150.74 134.15 150.698 134.106 150.666 134.056C150.634 134.005 150.613 133.949 150.605 133.89C150.597 133.83 150.601 133.77 150.618 133.713C150.634 133.656 150.663 133.603 150.702 133.557C150.74 133.512 150.788 133.475 150.842 133.449C150.896 133.423 150.955 133.409 151.014 133.408C151.074 133.407 151.133 133.418 151.188 133.441C151.614 133.564 152.049 133.653 152.489 133.708C153.108 133.773 153.731 133.773 154.35 133.708C154.404 133.701 154.46 133.704 154.513 133.719C154.567 133.733 154.616 133.758 154.66 133.792C154.704 133.826 154.74 133.868 154.767 133.916C154.794 133.964 154.811 134.017 154.818 134.072C154.831 134.183 154.799 134.295 154.729 134.383C154.66 134.471 154.558 134.528 154.447 134.541C154.115 134.579 153.78 134.598 153.445 134.599Z" fill="#1A004C"/>
<path d="M150.511 133.981C150.436 133.98 150.362 133.96 150.297 133.923C149.466 133.432 148.692 132.852 147.987 132.192C147.447 131.663 146.961 131.082 146.537 130.455C146.316 130.231 146.144 129.963 146.032 129.668C145.92 129.374 145.87 129.059 145.886 128.745C145.92 128.43 146.071 128.14 146.309 127.932C146.881 127.45 147.74 127.73 148.104 127.854C149.783 128.4 151.975 129.285 152.606 129.538C152.663 129.554 152.716 129.582 152.762 129.62C152.808 129.658 152.845 129.705 152.871 129.758C152.897 129.811 152.912 129.87 152.914 129.929C152.917 129.988 152.907 130.047 152.885 130.103C152.862 130.158 152.829 130.207 152.786 130.249C152.744 130.29 152.693 130.322 152.637 130.343C152.582 130.363 152.522 130.371 152.463 130.367C152.404 130.363 152.346 130.347 152.294 130.319C151.643 130.065 149.496 129.187 147.844 128.647C147.649 128.589 147.064 128.393 146.849 128.576C146.808 128.614 146.774 128.66 146.751 128.712C146.727 128.763 146.714 128.818 146.712 128.875C146.667 129.174 146.836 129.473 147.194 129.961C147.589 130.544 148.04 131.086 148.54 131.581C149.2 132.2 149.926 132.743 150.706 133.201C150.788 133.246 150.852 133.317 150.889 133.403C150.925 133.489 150.931 133.585 150.907 133.675C150.882 133.766 150.827 133.845 150.752 133.9C150.677 133.956 150.585 133.984 150.492 133.981H150.511Z" fill="#1A004C"/>
<path d="M151.24 145.605C150.851 145.607 150.464 145.545 150.095 145.423C149.396 145.161 148.767 144.742 148.254 144.2C147.899 143.84 147.595 143.433 147.35 142.99C147.308 142.915 147.29 142.828 147.3 142.741C147.31 142.655 147.346 142.574 147.404 142.51C147.462 142.445 147.539 142.4 147.624 142.382C147.708 142.363 147.797 142.371 147.877 142.405C148.669 142.73 149.557 142.73 150.349 142.405C150.451 142.361 150.567 142.36 150.671 142.402C150.774 142.443 150.857 142.524 150.902 142.626C150.943 142.73 150.942 142.846 150.9 142.949C150.857 143.052 150.776 143.135 150.674 143.179C150.056 143.431 149.386 143.529 148.722 143.465L148.859 143.615C149.279 144.065 149.798 144.413 150.375 144.63C150.882 144.757 151.411 144.777 151.926 144.687C152.442 144.598 152.932 144.401 153.367 144.109C153.45 144.062 153.545 144.041 153.64 144.051C156.729 144.468 159.871 143.898 162.617 142.425C163.183 142.103 163.724 141.74 164.237 141.338C164.277 141.292 164.328 141.255 164.384 141.231C164.441 141.206 164.502 141.194 164.564 141.195C164.626 141.197 164.686 141.212 164.741 141.239C164.797 141.267 164.845 141.306 164.884 141.354C164.922 141.402 164.95 141.458 164.964 141.518C164.979 141.578 164.98 141.64 164.968 141.701C164.956 141.761 164.931 141.818 164.895 141.868C164.858 141.918 164.811 141.959 164.757 141.989C164.209 142.414 163.631 142.799 163.027 143.14C160.174 144.691 156.908 145.309 153.686 144.909C152.944 145.348 152.101 145.587 151.24 145.605Z" fill="#1A004C"/>
<path d="M163.092 135.1C163.001 135.1 162.912 135.071 162.839 135.015C162.766 134.96 162.713 134.882 162.689 134.794C162.621 134.549 162.475 134.332 162.273 134.176C162.153 134.078 162.013 134.007 161.863 133.968C161.756 133.938 161.666 133.867 161.612 133.771C161.557 133.675 161.542 133.561 161.57 133.454C161.584 133.401 161.608 133.35 161.641 133.306C161.675 133.262 161.717 133.226 161.765 133.198C161.813 133.171 161.866 133.154 161.92 133.147C161.975 133.141 162.031 133.146 162.084 133.162C162.341 133.23 162.582 133.35 162.793 133.513C163.131 133.783 163.376 134.151 163.495 134.567C163.526 134.674 163.513 134.788 163.459 134.886C163.406 134.983 163.316 135.055 163.209 135.087L163.092 135.1Z" fill="#1A004C"/>
<path d="M200.97 145.397C200.86 145.407 200.75 145.372 200.665 145.301C200.581 145.229 200.528 145.127 200.518 145.017C200.509 144.906 200.543 144.797 200.615 144.712C200.686 144.627 200.788 144.574 200.899 144.565C202.264 144.337 203.603 143.969 204.893 143.465C205.97 143.042 207.011 142.528 208.002 141.93C208.049 141.902 208.101 141.883 208.155 141.875C208.21 141.867 208.265 141.87 208.318 141.883C208.371 141.896 208.421 141.92 208.465 141.953C208.509 141.985 208.546 142.026 208.574 142.073C208.603 142.12 208.621 142.172 208.629 142.227C208.637 142.281 208.635 142.336 208.621 142.389C208.608 142.442 208.585 142.492 208.552 142.536C208.519 142.58 208.478 142.618 208.431 142.646C206.165 144.023 203.657 144.956 201.042 145.397H200.97Z" fill="#1A004C"/>
<path d="M153.868 144.909C153.813 144.91 153.757 144.9 153.706 144.878C153.655 144.857 153.608 144.826 153.569 144.786L153.01 144.233C152.932 144.153 152.888 144.045 152.888 143.934C152.888 143.822 152.932 143.715 153.01 143.634C153.089 143.557 153.195 143.514 153.306 143.514C153.416 143.514 153.523 143.557 153.602 143.634L154.161 144.194C154.201 144.232 154.233 144.278 154.254 144.329C154.276 144.38 154.287 144.435 154.287 144.49C154.287 144.545 154.276 144.6 154.254 144.651C154.233 144.702 154.201 144.748 154.161 144.786C154.123 144.826 154.078 144.857 154.028 144.878C153.977 144.899 153.923 144.91 153.868 144.909Z" fill="#1A004C"/>
<path d="M151.351 135.38C151.267 135.381 151.185 135.356 151.116 135.308C151.025 135.246 150.962 135.151 150.94 135.043C150.918 134.934 150.939 134.822 150.999 134.729L151.559 133.89C151.621 133.797 151.718 133.733 151.827 133.711C151.937 133.689 152.051 133.711 152.144 133.773C152.235 133.835 152.299 133.93 152.321 134.039C152.342 134.147 152.321 134.259 152.261 134.352L151.702 135.191C151.663 135.249 151.611 135.297 151.55 135.329C151.489 135.362 151.42 135.38 151.351 135.38Z" fill="#1A004C"/>
<path d="M185.183 146.861H185.124L180.928 146.301C180.828 146.276 180.74 146.215 180.682 146.129C180.624 146.043 180.599 145.939 180.613 145.836C180.627 145.733 180.678 145.639 180.756 145.571C180.835 145.504 180.935 145.467 181.039 145.469L185.235 146.028C185.345 146.035 185.448 146.086 185.521 146.169C185.595 146.252 185.632 146.36 185.625 146.471C185.618 146.581 185.567 146.684 185.485 146.757C185.402 146.831 185.293 146.868 185.183 146.861Z" fill="#1A004C"/>
<path d="M182.945 133.422C182.845 133.423 182.748 133.388 182.671 133.324C182.595 133.259 182.544 133.169 182.529 133.07C182.52 133.016 182.521 132.96 182.534 132.906C182.547 132.852 182.57 132.801 182.603 132.756C182.636 132.711 182.677 132.673 182.725 132.644C182.772 132.616 182.825 132.597 182.88 132.589L188.188 131.75C188.298 131.733 188.41 131.76 188.499 131.825C188.589 131.89 188.649 131.988 188.666 132.098C188.683 132.208 188.656 132.319 188.591 132.409C188.526 132.499 188.428 132.559 188.318 132.576L183.01 133.415L182.945 133.422Z" fill="#1A004C"/>
<path d="M165.037 143.218C164.982 143.217 164.927 143.206 164.875 143.186L163.736 142.698C163.686 142.676 163.64 142.645 163.602 142.606C163.563 142.567 163.533 142.521 163.512 142.47C163.492 142.42 163.481 142.365 163.482 142.311C163.482 142.256 163.494 142.202 163.515 142.151C163.559 142.049 163.642 141.968 163.746 141.927C163.85 141.885 163.965 141.887 164.068 141.93L165.206 142.412C165.309 142.456 165.389 142.539 165.431 142.642C165.472 142.746 165.471 142.862 165.428 142.964C165.393 143.039 165.338 143.103 165.269 143.148C165.2 143.193 165.12 143.217 165.037 143.218Z" fill="#1A004C"/>
<path d="M156.997 97.1893C156.401 97.1885 155.806 97.1494 155.215 97.0722C150.661 96.4998 147.441 94.6394 145.672 91.556C143.662 88.0434 144.371 84.2965 144.794 82.8459C144.825 82.7391 144.898 82.6489 144.995 82.5943C145.092 82.5397 145.206 82.5249 145.314 82.5532C145.421 82.5849 145.51 82.6573 145.564 82.7547C145.618 82.8521 145.631 82.9667 145.6 83.0736C145.223 84.4201 144.546 87.9003 146.4 91.1397C148.033 93.9824 151.032 95.6932 155.319 96.2396C162.129 97.1047 167.509 92.4537 169.805 90.4697C173.14 87.5684 175.696 83.8786 177.24 79.7366C177.26 79.6853 177.289 79.6384 177.327 79.5986C177.365 79.5588 177.41 79.5268 177.46 79.5044C177.51 79.4821 177.565 79.4698 177.619 79.4683C177.674 79.4669 177.729 79.4763 177.78 79.4959C177.831 79.5155 177.878 79.5451 177.918 79.5829C177.958 79.6206 177.99 79.6659 178.012 79.716C178.035 79.7661 178.047 79.8202 178.048 79.8751C178.05 79.9299 178.04 79.9845 178.021 80.0358C176.425 84.3015 173.792 88.1022 170.358 91.0942C168.172 92.9871 163.313 97.1893 156.997 97.1893Z" fill="#ECF2FD"/>
</g>
</svg>
