<?xml version="1.0" ?>
<!-- Uploaded to: SVG Repo, www.svgrepo.com, Generator: SVG Repo Mixer Tools -->
<svg width="800px" height="800px" viewBox="0 0 512 512" id="Layer_1" version="1.1" xml:space="preserve" xmlns="http://www.w3.org/2000/svg" xmlns:xlink="http://www.w3.org/1999/xlink">
<g id="_x30_19_Select_Product">
<g>
<g>
<g>
<g>
<path d="M485.528,92.125v307.668H26.473V92.125c0-16.107,13.047-29.19,29.155-29.19h400.745       C472.48,62.935,485.528,76.018,485.528,92.125z" style="fill:#D3D9D9;"/>
</g>
<g>
<path d="M485.54,92.145v307.643h-29.076V92.145c0-16.131-13.064-29.196-29.156-29.196h29.076       C472.476,62.949,485.54,76.014,485.54,92.145z" style="fill:#A8B2B4;"/>
</g>
<g>
<path d="M84.665,62.949c-16.091,0-29.156,13.064-29.156,29.196v307.643H26.473V92.145       c0-16.131,13.025-29.196,29.116-29.196H84.665z" style="fill:#EDEDED;"/>
</g>
<g>
<path d="M55.538,370.727V92.126c0-4.461,3.613-8.088,8.057-8.088h384.813c4.437,0,8.05,3.627,8.05,8.088       v278.601H55.538z" style="fill:#D4F0FC;"/>
</g>
<g>
<path d="M456.461,374.727H55.54c-2.211,0-4-1.789-4-4v-278.6c0-6.668,5.406-12.09,12.055-12.09H448.41       c6.645,0,12.051,5.422,12.051,12.09v278.6C460.461,372.938,458.672,374.727,456.461,374.727z M59.54,366.727h392.921v-274.6       c0-2.254-1.816-4.09-4.051-4.09H63.595c-2.234,0-4.055,1.836-4.055,4.09V366.727z" style="fill:#333333;"/>
</g>
<g>
<g>
<path d="M508,399.829v19.483c0,16.424-13.329,29.752-29.752,29.752H33.753        c-16.423,0-29.752-13.329-29.752-29.752v-19.483H508z" style="fill:#A8B2B4;"/>
</g>
<g>
<path d="M62.905,449.058H33.749c-16.41,0-29.753-13.304-29.753-29.753v-19.477h29.155v19.477        C33.151,435.754,46.494,449.058,62.905,449.058z" style="fill:#D3D9D9;"/>
</g>
<g>
<path d="M508,399.828v19.477c0,16.45-13.342,29.753-29.753,29.753h-29.156        c16.41,0,29.754-13.304,29.754-29.753v-19.477H508z" style="fill:#7C8B8E;"/>
</g>
<g>
<path d="M328.355,399.829v14.049c0,4.869-3.952,8.821-8.821,8.821H192.466        c-4.87,0-8.822-3.952-8.822-8.821v-14.049H328.355z" style="fill:#FFFFFF;"/>
</g>
<g>
<path d="M328.371,399.828v14.06c0,4.859-3.983,8.802-8.842,8.802H295.91        c4.859,0,8.802-3.943,8.802-8.802v-14.06H328.371z" style="fill:#EDEDED;"/>
</g>
</g>
</g>
<g>
<g>
<rect height="141.788" style="fill:#FEDD8E;" width="141.788" x="185.117" y="111.374"/>
</g>
<g>
<path d="M326.905,111.349v141.812H185.093v-30.425h48.399c34.771,0,62.987-28.142,62.987-62.987v-48.4       H326.905z" style="fill:#FDD367;"/>
</g>
<g>
<rect height="39.841" style="fill:#FC8A8A;" width="34.442" x="238.79" y="111.374"/>
</g>
<g>
<path d="M273.258,111.361v39.855h-34.476v-13.113h8.252c7.219,0,13.111-5.82,13.111-13.113v-13.629       L273.258,111.361L273.258,111.361z" style="fill:#F96364;"/>
</g>
</g>
<g>
<g>
<path d="M340.299,317.64c0,11.312-9.161,20.472-20.473,20.472H192.172       c-11.312,0-20.473-9.161-20.473-20.472c0-5.656,2.31-10.794,5.974-14.459c3.744-3.744,8.843-6.014,14.499-6.014h127.654       C331.138,297.167,340.299,306.328,340.299,317.64z" style="fill:#7BDE9E;"/>
</g>
<g>
<path d="M218.089,338.125H192.16c-11.312,0-20.472-9.161-20.472-20.473       c0-5.656,2.309-10.794,5.975-14.458c3.744-3.744,8.842-6.014,14.498-6.014h25.929c-5.656,0-10.754,2.27-14.498,6.014       c-3.665,3.665-5.974,8.803-5.974,14.458C197.616,328.965,206.777,338.125,218.089,338.125z" style="fill:#A7EABF;"/>
</g>
<g>
<path d="M340.299,317.653c0,11.312-9.161,20.473-20.472,20.473h-25.929       c11.312,0,20.472-9.161,20.472-20.473s-9.161-20.473-20.472-20.473h25.929C331.138,297.18,340.299,306.341,340.299,317.653z" style="fill:#51D27F;"/>
</g>
<g>
<path d="M319.827,342.114H192.17c-13.496,0-24.473-10.977-24.473-24.473       c0-6.535,2.539-12.676,7.148-17.289c4.633-4.633,10.785-7.184,17.324-7.184h127.657c13.496,0,24.473,10.977,24.473,24.473       S333.323,342.114,319.827,342.114z M192.17,301.168c-4.402,0-8.547,1.719-11.668,4.84c-3.098,3.102-4.805,7.234-4.805,11.633       c0,9.082,7.391,16.473,16.473,16.473h127.657c9.082,0,16.473-7.391,16.473-16.473s-7.391-16.473-16.473-16.473H192.17z" style="fill:#333333;"/>
</g>
</g>
<g>
<g>
<polygon points="367.821,231.386 344.802,243.374 374.177,271.584 361.908,284.36 332.533,256.149        321.486,279.634 301.546,214.084      " style="fill:#FFFFFF;"/>
<path d="M376.944,268.699l-25.352-24.352l18.074-9.414c1.469-0.762,2.313-2.352,2.129-3.996       c-0.188-1.645-1.367-3.004-2.965-3.422l-37.926-9.9V111.374c0-2.211-1.789-4-4-4h-141.79c-2.211,0-4,1.789-4,4V253.16       c0,2.211,1.789,4,4,4h125.353l7.191,23.637c0.484,1.582,1.891,2.707,3.539,2.824c1.703,0.125,3.207-0.793,3.91-2.285       l8.672-18.441l25.359,24.352c0.746,0.715,1.738,1.113,2.77,1.113c0.027,0,0.055,0,0.082,0c1.059-0.023,2.066-0.465,2.805-1.23       l12.266-12.774C378.589,272.761,378.538,270.23,376.944,268.699z M269.232,115.373v31.84h-26.441v-31.84H269.232z        M189.115,249.159V115.373h45.676v35.84c0,2.211,1.789,4,4,4h34.441c2.211,0,4-1.789,4-4v-35.84h45.673v100.153l-20.348-5.312       c-1.41-0.363-2.895,0.055-3.895,1.102c-1.004,1.043-1.367,2.547-0.945,3.934l10.317,33.91L189.115,249.159L189.115,249.159z        M361.796,278.703l-26.492-25.442c-0.75-0.719-1.746-1.113-2.77-1.113c-0.242,0-0.484,0.023-0.727,0.066       c-1.27,0.234-2.344,1.066-2.895,2.231l-6.621,14.082l-14.84-48.766l49.313,12.875l-13.809,7.191       c-1.145,0.594-1.93,1.703-2.113,2.98c-0.18,1.273,0.262,2.559,1.191,3.453l26.484,25.438L361.796,278.703z" style="fill:#333333;"/>
</g>
<g>
<g>
<g>
<path d="M289.116,206.171c-0.996,0-1.996-0.371-2.77-1.113l-11.457-11.004         c-1.594-1.531-1.645-4.063-0.117-5.656c1.535-1.598,4.066-1.645,5.656-0.117l11.457,11.004         c1.594,1.531,1.645,4.063,0.117,5.656C291.213,205.761,290.166,206.171,289.116,206.171z" style="fill:#333333;"/>
</g>
</g>
<g>
<g>
<path d="M307.194,198.253c-2.172,0-3.953-1.738-4-3.918l-0.324-15.883         c-0.043-2.211,1.711-4.035,3.918-4.082c2.16,0.094,4.035,1.711,4.082,3.918l0.324,15.883         c0.043,2.211-1.711,4.035-3.918,4.082C307.249,198.253,307.221,198.253,307.194,198.253z" style="fill:#333333;"/>
</g>
</g>
<g>
<g>
<path d="M266.053,224.878c-2.172,0-3.957-1.738-4-3.918c-0.043-2.211,1.711-4.035,3.918-4.082         l15.879-0.32c2.277,0.008,4.039,1.715,4.082,3.918c0.043,2.211-1.711,4.035-3.918,4.082l-15.879,0.32         C266.108,224.878,266.08,224.878,266.053,224.878z" style="fill:#333333;"/>
</g>
</g>
</g>
</g>
<g>
<g>
<g>
<g>
<path d="M433.995,231.085l-34.921,29.301c-3.153,2.639-7.951,0.377-7.951-3.735v-58.533         c0-4.113,4.798-6.375,7.951-3.736l34.921,29.301C436.29,225.602,436.29,229.166,433.995,231.085z" style="fill:#FC8A8A;"/>
</g>
</g>
<g>
<g>
<path d="M82.003,223.683l34.921-29.301c3.153-2.639,7.951-0.377,7.951,3.735v58.533         c0,4.113-4.798,6.375-7.951,3.736l-34.921-29.301C79.707,229.166,79.707,225.602,82.003,223.683z" style="fill:#FC8A8A;"/>
</g>
</g>
</g>
<g>
<g>
<g>
<path d="M433.981,231.09l-34.891,29.315c-3.187,2.629-7.966,0.358-7.966-3.744v-10.674l31.425-26.367         c1.275-1.076,1.832-2.629,1.673-4.142l9.759,8.205C436.292,225.594,436.292,229.178,433.981,231.09z" style="fill:#F96364;"/>
</g>
</g>
<g>
<g>
<path d="M124.872,198.111v58.55c0,4.103-4.779,6.373-7.966,3.744l-10.156-8.524         c1.752-0.677,3.106-2.311,3.106-4.541v-47.039l7.05-5.935C120.092,191.738,124.872,194.008,124.872,198.111z" style="fill:#F96364;"/>
</g>
</g>
</g>
<g>
<g>
<g>
<path d="M395.997,265.506c-1.268,0-2.548-0.276-3.757-0.84c-3.147-1.47-5.099-4.543-5.099-8.017         v-58.531c0-3.473,1.956-6.546,5.103-8.013c3.139-1.474,6.733-0.996,9.386,1.225l34.925,29.305         c1.995,1.665,3.143,4.127,3.147,6.745c0,2.618-1.147,5.084-3.147,6.756l-34.921,29.301         C400,264.806,398.012,265.506,395.997,265.506z M395.993,197.231c-0.124,0-0.249,0.031-0.377,0.089         c-0.338,0.16-0.51,0.428-0.51,0.797v58.531c0,0.373,0.171,0.642,0.506,0.797c0.327,0.152,0.634,0.117,0.906-0.117         l34.917-29.293c0-0.004,0-0.004,0.004-0.004c0.241-0.206,0.296-0.467,0.296-0.65c-0.004-0.183-0.054-0.44-0.296-0.642         l-34.925-29.309C396.351,197.297,396.176,197.231,395.993,197.231z" style="fill:#333333;"/>
</g>
</g>
<g>
<g>
<path d="M119.996,265.506c-2.015,0-3.999-0.7-5.628-2.062l-34.925-29.308         c-1.999-1.673-3.147-4.135-3.147-6.756c0.004-2.618,1.151-5.08,3.151-6.752l34.917-29.293         c2.653-2.229,6.255-2.703,9.39-1.229c3.147,1.466,5.103,4.539,5.103,8.013v58.531c0,3.473-1.956,6.542-5.103,8.013         C122.544,265.23,121.264,265.506,119.996,265.506z M120.004,197.231c-0.183,0-0.358,0.07-0.525,0.206l-34.917,29.297         c0,0.004-0.004,0.004-0.004,0.008c-0.241,0.202-0.292,0.459-0.296,0.642c0,0.183,0.054,0.443,0.296,0.65l34.925,29.305         c0.276,0.222,0.58,0.264,0.899,0.109c0.338-0.159,0.51-0.428,0.51-0.797V198.12c0-0.37-0.171-0.638-0.51-0.797         C120.253,197.262,120.128,197.231,120.004,197.231z M82.002,223.684h0.039H82.002z" style="fill:#333333;"/>
</g>
</g>
</g>
</g>
</g>
<path d="M508,395.829h-18.473V92.127c0-18.301-14.871-33.191-33.152-33.191H55.63    c-18.282,0-33.157,14.891-33.157,33.191v303.702H4c-2.211,0-4,1.789-4,4v19.485c0,18.609,15.141,33.75,33.75,33.75h444.496    c18.613,0,33.754-15.141,33.754-33.75v-19.485C512,397.618,510.211,395.829,508,395.829z M187.646,403.829h136.708v10.051    c0,2.657-2.164,4.821-4.82,4.821H192.467c-2.656,0-4.82-2.164-4.82-4.821L187.646,403.829L187.646,403.829z M30.473,92.127    c0-13.891,11.285-25.191,25.157-25.191h400.745c13.867,0,25.152,11.301,25.152,25.191v303.666H30.473L30.473,92.127L30.473,92.127    z M504,419.314c0,14.199-11.555,25.75-25.754,25.75H33.75c-14.2,0-25.75-11.551-25.75-25.75v-15.485h171.646v10.051    c0,7.071,5.75,12.821,12.821,12.821h127.067c7.07,0,12.82-5.75,12.82-12.821v-10.051H504V419.314z" style="fill:#333333;"/>
</g>
</g>
</svg>